<svg width="34" height="34" viewBox="0 0 34 34" fill="none" xmlns="http://www.w3.org/2000/svg">
<path d="M17 34C26.3777 34 34 26.3777 34 17C34 7.62233 26.3777 0 17 0C7.62233 0 0 7.62233 0 17C0 26.3777 7.62233 34 17 34ZM17 2.37209C25.0651 2.37209 31.6279 8.93489 31.6279 17C31.6279 25.0651 25.0651 31.6279 17 31.6279C8.93489 31.6279 2.37209 25.0651 2.37209 17C2.37209 8.93489 8.93489 2.37209 17 2.37209Z" fill="white"/>
<path d="M18.9923 23.7684C19.2927 23.7684 19.5932 23.6577 19.8304 23.4205C20.289 22.9619 20.289 22.2028 19.8304 21.7442L15.0862 17.0001L19.8304 12.2559C20.289 11.7973 20.289 11.0382 19.8304 10.5796C19.3718 10.121 18.6127 10.121 18.1541 10.5796L12.5718 16.1619C12.1132 16.6205 12.1132 17.3796 12.5718 17.8382L18.1541 23.4205C18.3914 23.6577 18.6918 23.7684 18.9923 23.7684Z" fill="white"/>
</svg>
