<svg width="34" height="34" viewBox="0 0 34 34" fill="none" xmlns="http://www.w3.org/2000/svg">
<path d="M17 34C7.62233 34 0 26.3777 0 17C0 7.62233 7.62233 0 17 0C26.3777 0 34 7.62233 34 17C34 26.3777 26.3777 34 17 34ZM17 2.37209C8.93488 2.37209 2.37209 8.93488 2.37209 17C2.37209 25.0651 8.93488 31.6279 17 31.6279C25.0651 31.6279 31.6279 25.0651 31.6279 17C31.6279 8.93488 25.0651 2.37209 17 2.37209Z" fill="white"/>
<path d="M15.0077 23.7684C14.7073 23.7684 14.4068 23.6577 14.1696 23.4205C13.711 22.9619 13.711 22.2028 14.1696 21.7442L18.9138 17.0001L14.1696 12.2559C13.711 11.7973 13.711 11.0382 14.1696 10.5796C14.6282 10.121 15.3873 10.121 15.8459 10.5796L21.4282 16.1619C21.8868 16.6205 21.8868 17.3796 21.4282 17.8382L15.8459 23.4205C15.6087 23.6577 15.3082 23.7684 15.0077 23.7684Z" fill="white"/>
</svg>
