<svg width="197" height="50" viewBox="0 0 197 50" fill="none" xmlns="http://www.w3.org/2000/svg">
<path fill-rule="evenodd" clip-rule="evenodd" d="M31.5288 14.9715C28.572 14.9172 26.2136 12.4318 26.2609 9.41412C26.3141 6.39443 28.7494 3.98746 31.7062 4.03573C34.6649 4.09003 37.0233 6.57543 36.976 9.59512C36.9228 12.6128 34.4876 15.0198 31.5288 14.9715ZM24.9282 16.1048L21.7452 16.0505C22.3613 15.1525 22.7866 14.1077 22.9478 12.9745C23.4027 14.1459 24.0799 15.2165 24.9282 16.1048ZM19.0794 11.9216C19.0498 13.73 17.585 15.1763 15.8057 15.1445C14.0338 15.1143 12.6167 13.6194 12.6479 11.8114C12.6774 9.995 14.1422 8.54867 15.9137 8.58051C17.6934 8.61068 19.1106 10.1056 19.0794 11.9216ZM29.511 27.1991C31.3594 28.3867 32.4934 29.9436 32.0464 30.673C31.5915 31.4124 29.7274 31.0447 27.8787 29.8652C26.0284 28.6856 24.8964 27.1267 25.3512 26.3893C25.7982 25.6579 27.6623 26.0196 29.511 27.1991ZM27.507 23.9904C31.692 25.4069 35.659 27.3938 39.3108 29.9034L39.5646 16.3558L38.094 16.3478V16.3317C39.8027 14.642 40.8816 12.2833 40.9289 9.66551C41.0136 4.41348 36.9149 0.0879053 31.7768 0.0014273C26.8377 -0.0850507 22.7311 3.76858 22.3393 8.72096C21.2052 6.29186 18.8018 4.59415 15.9827 4.54588C12.0239 4.47549 8.7561 7.6983 8.69501 11.7406C8.66348 13.2497 9.0947 14.6658 9.84284 15.8453L7.8467 15.8132C6.93927 18.3609 8.17939 21.8525 11.4846 25.6499C12.3546 26.6082 13.2643 27.5205 14.2033 28.3863C15.2822 29.3848 16.406 30.3271 17.5775 31.2093C20.6525 33.5277 24.0109 35.4386 27.5858 36.885C29.8437 37.8292 32.2533 38.5907 34.6728 38.9604C36.2673 39.2034 40.1436 39.5189 41.1594 37.789C44.1103 32.7642 30.9206 25.3267 27.507 23.9904Z" fill="white"/>
<path fill-rule="evenodd" clip-rule="evenodd" d="M41.244 18.0775L41.1298 24.9649C45.2501 24.981 44.3956 26.295 47.8013 27.6853L48 15.6002C44.681 16.9925 45.144 18.1959 41.244 18.0775Z" fill="white"/>
<path fill-rule="evenodd" clip-rule="evenodd" d="M7.53924 27.3399L4.54306 32.6318C3.62578 31.4442 2.73182 30.0683 2.16102 28.686L4.98216 23.6994C5.72833 25.0133 6.62985 26.2472 7.53924 27.3399ZM12.4922 32.2865L9.42701 37.7112C8.37179 36.8072 7.36978 35.8486 6.43673 34.85L9.47233 29.4797C10.429 30.4621 11.4369 31.3983 12.4922 32.2865ZM32.9321 42.8687C34.2865 43.16 35.7592 43.3889 37.2216 43.4432L34.4714 48.3014C33.0382 48.474 31.4358 48.3416 29.9809 48.0906L32.9318 42.8687H32.9321ZM20.3115 37.7514C21.4613 38.4184 22.6463 39.0472 23.8568 39.6378L20.7897 45.0545C19.5733 44.482 18.386 43.8531 17.2306 43.1918L20.3115 37.7511V37.7514ZM26.3689 40.7611C27.6229 41.2893 28.9024 41.7535 30.196 42.1454L27.1841 47.4675C25.8908 47.1078 24.5955 46.6597 23.3179 46.1555L26.3693 40.7611H26.3689ZM14.6657 34.0245C15.7445 34.8343 16.8526 35.6035 17.9709 36.3269L14.888 41.7676C13.7717 41.0443 12.6616 40.2747 11.5828 39.4572L14.6657 34.0245ZM41.6057 41.2172C37.1763 42.9793 28.4928 40.8958 19.8961 35.6277C11.2915 30.3596 5.40516 23.5184 4.84225 18.7068C4.71219 17.5514 4.88166 16.5127 5.3894 15.6409L2.78502 20.0831L2.77714 20.0911L0.590181 23.81L0.574417 23.8342V23.8422C0.0742314 24.706 -0.0870234 25.7286 0.0430314 26.876C0.605945 31.6879 6.49224 38.5291 15.089 43.7968C23.6877 49.065 32.3771 51.1481 36.7986 49.3864C37.8617 48.9624 38.6785 48.3255 39.1944 47.4537L41.0507 44.2852L41.3834 43.7268V43.7187L43.9937 39.2846C43.478 40.1564 42.6609 40.8016 41.6057 41.2172Z" fill="#BCA045"/>
<path d="M63.976 9.226L60.088 18.37C60.004 18.598 59.872 18.778 59.692 18.91C59.524 19.03 59.338 19.09 59.134 19.09C58.81 19.09 58.57 19 58.414 18.82C58.258 18.64 58.18 18.418 58.18 18.154C58.18 18.046 58.198 17.932 58.234 17.812L62.716 7.048C62.812 6.808 62.956 6.622 63.148 6.49C63.352 6.358 63.568 6.304 63.796 6.328C64.012 6.328 64.21 6.394 64.39 6.526C64.582 6.646 64.72 6.82 64.804 7.048L69.232 17.596C69.292 17.752 69.322 17.896 69.322 18.028C69.322 18.352 69.214 18.61 68.998 18.802C68.794 18.994 68.566 19.09 68.314 19.09C68.098 19.09 67.9 19.024 67.72 18.892C67.552 18.76 67.42 18.58 67.324 18.352L63.454 9.334L63.976 9.226ZM60.646 16.174L61.636 14.104H66.496L66.838 16.174H60.646ZM75.7241 9.19C76.6841 9.19 77.3921 9.424 77.8481 9.892C78.3041 10.348 78.6041 10.942 78.7481 11.674L78.4421 11.512L78.5861 11.224C78.7301 10.948 78.9521 10.654 79.2521 10.342C79.5521 10.018 79.9121 9.748 80.3321 9.532C80.7641 9.304 81.2441 9.19 81.7721 9.19C82.6361 9.19 83.2901 9.376 83.7341 9.748C84.1901 10.12 84.5021 10.618 84.6701 11.242C84.8381 11.854 84.9221 12.538 84.9221 13.294V17.902C84.9221 18.214 84.8201 18.478 84.6161 18.694C84.4121 18.898 84.1541 19 83.8421 19C83.5301 19 83.2721 18.898 83.0681 18.694C82.8641 18.478 82.7621 18.214 82.7621 17.902V13.294C82.7621 12.898 82.7141 12.544 82.6181 12.232C82.5221 11.908 82.3481 11.65 82.0961 11.458C81.8441 11.266 81.4841 11.17 81.0161 11.17C80.5601 11.17 80.1701 11.266 79.8461 11.458C79.5221 11.65 79.2761 11.908 79.1081 12.232C78.9521 12.544 78.8741 12.898 78.8741 13.294V17.902C78.8741 18.214 78.7721 18.478 78.5681 18.694C78.3641 18.898 78.1061 19 77.7941 19C77.4821 19 77.2241 18.898 77.0201 18.694C76.8161 18.478 76.7141 18.214 76.7141 17.902V13.294C76.7141 12.898 76.6661 12.544 76.5701 12.232C76.4741 11.908 76.3001 11.65 76.0481 11.458C75.7961 11.266 75.4361 11.17 74.9681 11.17C74.5121 11.17 74.1221 11.266 73.7981 11.458C73.4741 11.65 73.2281 11.908 73.0601 12.232C72.9041 12.544 72.8261 12.898 72.8261 13.294V17.902C72.8261 18.214 72.7241 18.478 72.5201 18.694C72.3161 18.898 72.0581 19 71.7461 19C71.4341 19 71.1761 18.898 70.9721 18.694C70.7681 18.478 70.6661 18.214 70.6661 17.902V10.468C70.6661 10.156 70.7681 9.898 70.9721 9.694C71.1761 9.478 71.4341 9.37 71.7461 9.37C72.0581 9.37 72.3161 9.478 72.5201 9.694C72.7241 9.898 72.8261 10.156 72.8261 10.468V11.242L72.5561 11.188C72.6641 10.984 72.8141 10.768 73.0061 10.54C73.1981 10.3 73.4321 10.078 73.7081 9.874C73.9841 9.67 74.2901 9.508 74.6261 9.388C74.9621 9.256 75.3281 9.19 75.7241 9.19ZM91.7958 19.18C90.7758 19.18 89.8878 18.97 89.1318 18.55C88.3878 18.118 87.8118 17.536 87.4038 16.804C87.0078 16.072 86.8098 15.244 86.8098 14.32C86.8098 13.24 87.0258 12.322 87.4578 11.566C87.9018 10.798 88.4778 10.21 89.1858 9.802C89.8938 9.394 90.6438 9.19 91.4358 9.19C92.0478 9.19 92.6238 9.316 93.1638 9.568C93.7158 9.82 94.2018 10.168 94.6218 10.612C95.0418 11.044 95.3718 11.548 95.6118 12.124C95.8638 12.7 95.9898 13.312 95.9898 13.96C95.9778 14.248 95.8638 14.482 95.6478 14.662C95.4318 14.842 95.1798 14.932 94.8918 14.932H88.0158L87.4758 13.132H94.0818L93.6858 13.492V13.006C93.6618 12.658 93.5358 12.346 93.3078 12.07C93.0918 11.794 92.8158 11.578 92.4798 11.422C92.1558 11.254 91.8078 11.17 91.4358 11.17C91.0758 11.17 90.7398 11.218 90.4278 11.314C90.1158 11.41 89.8458 11.572 89.6178 11.8C89.3898 12.028 89.2098 12.334 89.0778 12.718C88.9458 13.102 88.8798 13.588 88.8798 14.176C88.8798 14.824 89.0118 15.376 89.2758 15.832C89.5518 16.276 89.8998 16.618 90.3198 16.858C90.7518 17.086 91.2078 17.2 91.6878 17.2C92.1318 17.2 92.4858 17.164 92.7498 17.092C93.0138 17.02 93.2238 16.936 93.3798 16.84C93.5478 16.732 93.6978 16.642 93.8298 16.57C94.0458 16.462 94.2498 16.408 94.4418 16.408C94.7058 16.408 94.9218 16.498 95.0898 16.678C95.2698 16.858 95.3598 17.068 95.3598 17.308C95.3598 17.632 95.1918 17.926 94.8558 18.19C94.5438 18.454 94.1058 18.688 93.5418 18.892C92.9778 19.084 92.3958 19.18 91.7958 19.18ZM98.957 19C98.645 19 98.387 18.898 98.183 18.694C97.979 18.478 97.877 18.214 97.877 17.902V10.468C97.877 10.156 97.979 9.898 98.183 9.694C98.387 9.478 98.645 9.37 98.957 9.37C99.269 9.37 99.527 9.478 99.731 9.694C99.935 9.898 100.037 10.156 100.037 10.468V12.16L99.911 10.954C100.043 10.666 100.211 10.414 100.415 10.198C100.631 9.97 100.871 9.784 101.135 9.64C101.399 9.484 101.681 9.37 101.981 9.298C102.281 9.226 102.581 9.19 102.881 9.19C103.241 9.19 103.541 9.292 103.781 9.496C104.033 9.7 104.159 9.94 104.159 10.216C104.159 10.612 104.057 10.9 103.853 11.08C103.649 11.248 103.427 11.332 103.187 11.332C102.959 11.332 102.749 11.29 102.557 11.206C102.377 11.122 102.167 11.08 101.927 11.08C101.711 11.08 101.489 11.134 101.261 11.242C101.045 11.338 100.841 11.494 100.649 11.71C100.469 11.926 100.319 12.196 100.199 12.52C100.091 12.832 100.037 13.204 100.037 13.636V17.902C100.037 18.214 99.935 18.478 99.731 18.694C99.527 18.898 99.269 19 98.957 19ZM107.716 17.902C107.716 18.214 107.614 18.478 107.41 18.694C107.206 18.898 106.948 19 106.636 19C106.324 19 106.066 18.898 105.862 18.694C105.658 18.478 105.556 18.214 105.556 17.902V10.468C105.556 10.156 105.658 9.898 105.862 9.694C106.066 9.478 106.324 9.37 106.636 9.37C106.948 9.37 107.206 9.478 107.41 9.694C107.614 9.898 107.716 10.156 107.716 10.468V17.902ZM106.618 8.2C106.21 8.2 105.922 8.134 105.754 8.002C105.586 7.87 105.502 7.636 105.502 7.3V6.958C105.502 6.61 105.592 6.376 105.772 6.256C105.964 6.124 106.252 6.058 106.636 6.058C107.056 6.058 107.35 6.124 107.518 6.256C107.686 6.388 107.77 6.622 107.77 6.958V7.3C107.77 7.648 107.68 7.888 107.5 8.02C107.32 8.14 107.026 8.2 106.618 8.2ZM114.22 9.19C114.904 9.19 115.498 9.262 116.002 9.406C116.518 9.55 116.914 9.754 117.19 10.018C117.478 10.27 117.622 10.576 117.622 10.936C117.622 11.176 117.55 11.404 117.406 11.62C117.262 11.824 117.052 11.926 116.776 11.926C116.584 11.926 116.422 11.902 116.29 11.854C116.17 11.794 116.062 11.722 115.966 11.638C115.87 11.554 115.756 11.476 115.624 11.404C115.504 11.332 115.318 11.278 115.066 11.242C114.826 11.194 114.646 11.17 114.526 11.17C113.914 11.17 113.392 11.302 112.96 11.566C112.54 11.83 112.216 12.19 111.988 12.646C111.76 13.09 111.646 13.606 111.646 14.194C111.646 14.77 111.76 15.286 111.988 15.742C112.228 16.186 112.552 16.54 112.96 16.804C113.38 17.068 113.86 17.2 114.4 17.2C114.7 17.2 114.958 17.182 115.174 17.146C115.39 17.11 115.57 17.056 115.714 16.984C115.882 16.888 116.032 16.786 116.164 16.678C116.296 16.57 116.494 16.516 116.758 16.516C117.07 16.516 117.31 16.618 117.478 16.822C117.646 17.014 117.73 17.254 117.73 17.542C117.73 17.842 117.562 18.118 117.226 18.37C116.89 18.61 116.446 18.808 115.894 18.964C115.354 19.108 114.766 19.18 114.13 19.18C113.182 19.18 112.36 18.964 111.664 18.532C110.968 18.088 110.428 17.488 110.044 16.732C109.672 15.976 109.486 15.13 109.486 14.194C109.486 13.21 109.684 12.346 110.08 11.602C110.488 10.846 111.046 10.258 111.754 9.838C112.474 9.406 113.296 9.19 114.22 9.19ZM127.171 9.19C127.483 9.19 127.741 9.292 127.945 9.496C128.149 9.7 128.251 9.964 128.251 10.288V17.902C128.251 18.214 128.149 18.478 127.945 18.694C127.741 18.898 127.483 19 127.171 19C126.859 19 126.601 18.898 126.397 18.694C126.193 18.478 126.091 18.214 126.091 17.902V17.02L126.487 17.182C126.487 17.338 126.403 17.53 126.235 17.758C126.067 17.974 125.839 18.19 125.551 18.406C125.263 18.622 124.921 18.808 124.525 18.964C124.141 19.108 123.721 19.18 123.265 19.18C122.437 19.18 121.687 18.97 121.015 18.55C120.343 18.118 119.809 17.53 119.413 16.786C119.029 16.03 118.837 15.166 118.837 14.194C118.837 13.21 119.029 12.346 119.413 11.602C119.809 10.846 120.337 10.258 120.997 9.838C121.657 9.406 122.389 9.19 123.193 9.19C123.709 9.19 124.183 9.268 124.615 9.424C125.047 9.58 125.419 9.778 125.731 10.018C126.055 10.258 126.301 10.504 126.469 10.756C126.649 10.996 126.739 11.2 126.739 11.368L126.091 11.602V10.288C126.091 9.976 126.193 9.718 126.397 9.514C126.601 9.298 126.859 9.19 127.171 9.19ZM123.535 17.2C124.063 17.2 124.525 17.068 124.921 16.804C125.317 16.54 125.623 16.18 125.839 15.724C126.067 15.268 126.181 14.758 126.181 14.194C126.181 13.618 126.067 13.102 125.839 12.646C125.623 12.19 125.317 11.83 124.921 11.566C124.525 11.302 124.063 11.17 123.535 11.17C123.019 11.17 122.563 11.302 122.167 11.566C121.771 11.83 121.459 12.19 121.231 12.646C121.015 13.102 120.907 13.618 120.907 14.194C120.907 14.758 121.015 15.268 121.231 15.724C121.459 16.18 121.771 16.54 122.167 16.804C122.563 17.068 123.019 17.2 123.535 17.2ZM135.738 9.19C136.626 9.19 137.298 9.376 137.754 9.748C138.222 10.12 138.54 10.618 138.708 11.242C138.888 11.854 138.978 12.538 138.978 13.294V17.902C138.978 18.214 138.876 18.478 138.672 18.694C138.468 18.898 138.21 19 137.898 19C137.586 19 137.328 18.898 137.124 18.694C136.92 18.478 136.818 18.214 136.818 17.902V13.294C136.818 12.898 136.764 12.544 136.656 12.232C136.56 11.908 136.38 11.65 136.116 11.458C135.852 11.266 135.474 11.17 134.982 11.17C134.502 11.17 134.094 11.266 133.758 11.458C133.434 11.65 133.182 11.908 133.002 12.232C132.834 12.544 132.75 12.898 132.75 13.294V17.902C132.75 18.214 132.648 18.478 132.444 18.694C132.24 18.898 131.982 19 131.67 19C131.358 19 131.1 18.898 130.896 18.694C130.692 18.478 130.59 18.214 130.59 17.902V10.468C130.59 10.156 130.692 9.898 130.896 9.694C131.1 9.478 131.358 9.37 131.67 9.37C131.982 9.37 132.24 9.478 132.444 9.694C132.648 9.898 132.75 10.156 132.75 10.468V11.242L132.48 11.188C132.588 10.984 132.744 10.768 132.948 10.54C133.152 10.3 133.392 10.078 133.668 9.874C133.944 9.67 134.256 9.508 134.604 9.388C134.952 9.256 135.33 9.19 135.738 9.19ZM150.158 19.18C149.222 19.192 148.418 19.036 147.746 18.712C147.074 18.388 146.426 17.914 145.802 17.29C145.778 17.266 145.754 17.236 145.73 17.2C145.706 17.152 145.694 17.092 145.694 17.02C145.694 16.924 145.736 16.834 145.82 16.75C145.904 16.654 145.994 16.606 146.09 16.606C146.198 16.606 146.3 16.66 146.396 16.768C146.876 17.32 147.434 17.74 148.07 18.028C148.718 18.316 149.39 18.46 150.086 18.46C150.698 18.46 151.244 18.364 151.724 18.172C152.204 17.968 152.582 17.686 152.858 17.326C153.134 16.954 153.272 16.522 153.272 16.03C153.26 15.418 153.092 14.926 152.768 14.554C152.444 14.182 152.024 13.876 151.508 13.636C151.004 13.396 150.47 13.174 149.906 12.97C149.462 12.802 149.024 12.628 148.592 12.448C148.16 12.268 147.77 12.052 147.422 11.8C147.074 11.536 146.798 11.212 146.594 10.828C146.39 10.432 146.288 9.946 146.288 9.37C146.288 8.782 146.444 8.254 146.756 7.786C147.08 7.306 147.536 6.928 148.124 6.652C148.724 6.364 149.432 6.22 150.248 6.22C150.932 6.22 151.598 6.346 152.246 6.598C152.894 6.838 153.404 7.204 153.776 7.696C153.896 7.864 153.956 7.99 153.956 8.074C153.956 8.158 153.908 8.242 153.812 8.326C153.728 8.41 153.632 8.452 153.524 8.452C153.428 8.452 153.35 8.416 153.29 8.344C153.074 8.056 152.81 7.81 152.498 7.606C152.198 7.39 151.856 7.228 151.472 7.12C151.088 7 150.68 6.94 150.248 6.94C149.66 6.94 149.126 7.036 148.646 7.228C148.166 7.42 147.782 7.696 147.494 8.056C147.206 8.404 147.062 8.836 147.062 9.352C147.062 9.904 147.218 10.36 147.53 10.72C147.854 11.068 148.262 11.362 148.754 11.602C149.246 11.83 149.75 12.04 150.266 12.232C150.722 12.388 151.172 12.562 151.616 12.754C152.072 12.934 152.48 13.162 152.84 13.438C153.212 13.714 153.506 14.062 153.722 14.482C153.938 14.902 154.046 15.43 154.046 16.066C154.046 16.618 153.884 17.128 153.56 17.596C153.248 18.064 152.804 18.442 152.228 18.73C151.652 19.018 150.962 19.168 150.158 19.18ZM155.627 9.946H159.803C159.899 9.946 159.977 9.982 160.037 10.054C160.109 10.126 160.145 10.204 160.145 10.288C160.145 10.384 160.109 10.468 160.037 10.54C159.977 10.6 159.899 10.63 159.803 10.63H155.627C155.543 10.63 155.465 10.594 155.393 10.522C155.321 10.45 155.285 10.372 155.285 10.288C155.285 10.192 155.321 10.114 155.393 10.054C155.465 9.982 155.543 9.946 155.627 9.946ZM157.463 7.3C157.571 7.3 157.655 7.336 157.715 7.408C157.787 7.48 157.823 7.564 157.823 7.66V17.038C157.823 17.434 157.871 17.728 157.967 17.92C158.075 18.1 158.207 18.22 158.363 18.28C158.519 18.328 158.669 18.352 158.813 18.352C158.897 18.352 158.969 18.34 159.029 18.316C159.089 18.292 159.161 18.28 159.245 18.28C159.329 18.28 159.401 18.316 159.461 18.388C159.521 18.448 159.551 18.52 159.551 18.604C159.551 18.712 159.479 18.808 159.335 18.892C159.203 18.964 159.035 19 158.831 19C158.759 19 158.627 19 158.435 19C158.255 18.988 158.057 18.934 157.841 18.838C157.637 18.73 157.463 18.544 157.319 18.28C157.175 18.004 157.103 17.602 157.103 17.074V7.66C157.103 7.564 157.139 7.48 157.211 7.408C157.283 7.336 157.367 7.3 157.463 7.3ZM168.936 10.018C169.044 10.018 169.128 10.054 169.188 10.126C169.26 10.198 169.296 10.282 169.296 10.378V15.616C169.296 16.78 168.966 17.656 168.306 18.244C167.658 18.82 166.794 19.108 165.714 19.108C164.646 19.108 163.782 18.82 163.122 18.244C162.474 17.656 162.15 16.78 162.15 15.616V10.378C162.15 10.282 162.186 10.198 162.258 10.126C162.33 10.054 162.414 10.018 162.51 10.018C162.618 10.018 162.702 10.054 162.762 10.126C162.834 10.198 162.87 10.282 162.87 10.378V15.616C162.87 16.528 163.122 17.224 163.626 17.704C164.142 18.184 164.838 18.424 165.714 18.424C166.602 18.424 167.298 18.184 167.802 17.704C168.318 17.224 168.576 16.528 168.576 15.616V10.378C168.576 10.282 168.606 10.198 168.666 10.126C168.738 10.054 168.828 10.018 168.936 10.018ZM179.727 5.68C179.835 5.68 179.919 5.716 179.979 5.788C180.051 5.86 180.087 5.944 180.087 6.04V18.64C180.087 18.736 180.051 18.82 179.979 18.892C179.907 18.964 179.823 19 179.727 19C179.619 19 179.529 18.964 179.457 18.892C179.397 18.82 179.367 18.736 179.367 18.64V16.084L179.655 15.688C179.655 16.096 179.559 16.51 179.367 16.93C179.187 17.338 178.923 17.716 178.575 18.064C178.239 18.4 177.843 18.67 177.387 18.874C176.931 19.078 176.439 19.18 175.911 19.18C175.119 19.18 174.405 18.976 173.769 18.568C173.145 18.148 172.647 17.584 172.275 16.876C171.915 16.156 171.735 15.346 171.735 14.446C171.735 13.546 171.915 12.742 172.275 12.034C172.647 11.314 173.145 10.75 173.769 10.342C174.405 9.934 175.119 9.73 175.911 9.73C176.403 9.73 176.871 9.826 177.315 10.018C177.771 10.198 178.173 10.456 178.521 10.792C178.869 11.128 179.145 11.524 179.349 11.98C179.553 12.424 179.655 12.91 179.655 13.438L179.367 12.988V6.04C179.367 5.944 179.397 5.86 179.457 5.788C179.529 5.716 179.619 5.68 179.727 5.68ZM175.947 18.496C176.631 18.496 177.231 18.322 177.747 17.974C178.275 17.626 178.689 17.146 178.989 16.534C179.289 15.922 179.439 15.226 179.439 14.446C179.439 13.666 179.289 12.976 178.989 12.376C178.689 11.764 178.275 11.284 177.747 10.936C177.219 10.588 176.619 10.414 175.947 10.414C175.287 10.414 174.693 10.588 174.165 10.936C173.637 11.284 173.217 11.764 172.905 12.376C172.605 12.976 172.455 13.666 172.455 14.446C172.455 15.214 172.605 15.904 172.905 16.516C173.217 17.128 173.637 17.614 174.165 17.974C174.693 18.322 175.287 18.496 175.947 18.496ZM183.788 18.64C183.788 18.736 183.752 18.82 183.68 18.892C183.608 18.964 183.524 19 183.428 19C183.32 19 183.23 18.964 183.158 18.892C183.098 18.82 183.068 18.736 183.068 18.64V10.09C183.068 9.994 183.104 9.91 183.176 9.838C183.248 9.766 183.332 9.73 183.428 9.73C183.536 9.73 183.62 9.766 183.68 9.838C183.752 9.91 183.788 9.994 183.788 10.09V18.64ZM183.428 8.506C183.236 8.506 183.08 8.452 182.96 8.344C182.852 8.236 182.798 8.098 182.798 7.93V7.786C182.798 7.618 182.858 7.48 182.978 7.372C183.098 7.264 183.254 7.21 183.446 7.21C183.614 7.21 183.752 7.264 183.86 7.372C183.98 7.48 184.04 7.618 184.04 7.786V7.93C184.04 8.098 183.98 8.236 183.86 8.344C183.752 8.452 183.608 8.506 183.428 8.506ZM195.093 14.464C195.093 15.352 194.901 16.156 194.517 16.876C194.133 17.584 193.605 18.148 192.933 18.568C192.273 18.976 191.517 19.18 190.665 19.18C189.825 19.18 189.069 18.976 188.397 18.568C187.725 18.148 187.191 17.584 186.795 16.876C186.411 16.156 186.219 15.352 186.219 14.464C186.219 13.564 186.411 12.76 186.795 12.052C187.191 11.332 187.725 10.768 188.397 10.36C189.069 9.94 189.825 9.73 190.665 9.73C191.517 9.73 192.273 9.94 192.933 10.36C193.605 10.768 194.133 11.332 194.517 12.052C194.901 12.76 195.093 13.564 195.093 14.464ZM194.373 14.464C194.373 13.684 194.211 12.994 193.887 12.394C193.575 11.782 193.137 11.302 192.573 10.954C192.021 10.594 191.385 10.414 190.665 10.414C189.957 10.414 189.321 10.594 188.757 10.954C188.193 11.302 187.749 11.782 187.425 12.394C187.101 12.994 186.939 13.684 186.939 14.464C186.939 15.232 187.101 15.922 187.425 16.534C187.749 17.134 188.193 17.614 188.757 17.974C189.321 18.322 189.957 18.496 190.665 18.496C191.385 18.496 192.021 18.322 192.573 17.974C193.137 17.614 193.575 17.134 193.887 16.534C194.211 15.922 194.373 15.232 194.373 14.464Z" fill="#BCA045"/>
<path d="M59.75 44C59.6193 44 59.512 43.958 59.428 43.874C59.3533 43.79 59.316 43.692 59.316 43.58V34.62C59.316 34.508 59.358 34.41 59.442 34.326C59.526 34.242 59.624 34.2 59.736 34.2H64.832C64.9533 34.2 65.0513 34.242 65.126 34.326C65.21 34.4007 65.252 34.4987 65.252 34.62C65.252 34.732 65.21 34.83 65.126 34.914C65.0513 34.9887 64.9533 35.026 64.832 35.026H60.114L60.17 34.942V38.666L60.1 38.54H64.202C64.3233 38.54 64.4213 38.582 64.496 38.666C64.58 38.7407 64.622 38.834 64.622 38.946C64.622 39.0673 64.58 39.1653 64.496 39.24C64.4213 39.3147 64.3233 39.352 64.202 39.352H60.072L60.17 39.24V43.58C60.17 43.692 60.128 43.79 60.044 43.874C59.9693 43.958 59.8713 44 59.75 44ZM67.8477 43.58C67.8477 43.692 67.8057 43.79 67.7217 43.874C67.6377 43.958 67.5397 44 67.4277 44C67.3064 44 67.2037 43.958 67.1197 43.874C67.045 43.79 67.0077 43.692 67.0077 43.58V37.14C67.0077 37.028 67.045 36.93 67.1197 36.846C67.2037 36.762 67.3064 36.72 67.4277 36.72C67.549 36.72 67.647 36.762 67.7217 36.846C67.8057 36.93 67.8477 37.028 67.8477 37.14V43.58ZM67.4277 35.782C67.2317 35.782 67.0824 35.74 66.9797 35.656C66.8864 35.5627 66.8397 35.432 66.8397 35.264V35.124C66.8397 34.956 66.891 34.83 66.9937 34.746C67.1057 34.6527 67.255 34.606 67.4417 34.606C67.619 34.606 67.7544 34.6527 67.8477 34.746C67.9504 34.83 68.0017 34.956 68.0017 35.124V35.264C68.0017 35.432 67.9504 35.5627 67.8477 35.656C67.7544 35.74 67.6144 35.782 67.4277 35.782ZM70.9538 43.58C70.9538 43.692 70.9118 43.79 70.8278 43.874C70.7438 43.958 70.6458 44 70.5338 44C70.4125 44 70.3098 43.958 70.2258 43.874C70.1512 43.79 70.1138 43.692 70.1138 43.58V34.06C70.1138 33.948 70.1558 33.85 70.2398 33.766C70.3238 33.682 70.4218 33.64 70.5338 33.64C70.6552 33.64 70.7532 33.682 70.8278 33.766C70.9118 33.85 70.9538 33.948 70.9538 34.06V43.58ZM76.4764 36.79C77.0551 36.79 77.5497 36.944 77.9604 37.252C78.3711 37.5507 78.6511 37.9987 78.8004 38.596L78.6044 38.652L78.6884 38.4C78.8097 38.12 79.0104 37.8587 79.2904 37.616C79.5797 37.364 79.9064 37.1633 80.2704 37.014C80.6344 36.8647 81.0031 36.79 81.3764 36.79C81.9644 36.79 82.4357 36.916 82.7904 37.168C83.1544 37.42 83.4157 37.7607 83.5744 38.19C83.7424 38.61 83.8264 39.086 83.8264 39.618V43.58C83.8264 43.692 83.7844 43.79 83.7004 43.874C83.6257 43.958 83.5277 44 83.4064 44C83.2851 44 83.1824 43.958 83.0984 43.874C83.0237 43.79 82.9864 43.692 82.9864 43.58V39.66C82.9864 39.2773 82.9257 38.9273 82.8044 38.61C82.6831 38.2927 82.4917 38.0407 82.2304 37.854C81.9691 37.6673 81.6191 37.574 81.1804 37.574C80.7977 37.574 80.4291 37.6673 80.0744 37.854C79.7291 38.0407 79.4444 38.2927 79.2204 38.61C79.0057 38.9273 78.8984 39.2773 78.8984 39.66V43.58C78.8984 43.692 78.8564 43.79 78.7724 43.874C78.6977 43.958 78.5997 44 78.4784 44C78.3571 44 78.2544 43.958 78.1704 43.874C78.0957 43.79 78.0584 43.692 78.0584 43.58V39.618C78.0584 39.2353 78.0024 38.89 77.8904 38.582C77.7784 38.274 77.5964 38.0313 77.3444 37.854C77.0924 37.6673 76.7517 37.574 76.3224 37.574C75.9397 37.574 75.5757 37.6673 75.2304 37.854C74.8944 38.0313 74.6191 38.274 74.4044 38.582C74.1991 38.89 74.0964 39.2353 74.0964 39.618V43.58C74.0964 43.692 74.0544 43.79 73.9704 43.874C73.8864 43.958 73.7884 44 73.6764 44C73.5457 44 73.4431 43.958 73.3684 43.874C73.2937 43.79 73.2564 43.692 73.2564 43.58V37.308C73.2564 37.196 73.2937 37.098 73.3684 37.014C73.4524 36.93 73.5551 36.888 73.6764 36.888C73.7977 36.888 73.8957 36.93 73.9704 37.014C74.0544 37.098 74.0964 37.196 74.0964 37.308V38.61L73.7184 39.128C73.7464 38.848 73.8351 38.568 73.9844 38.288C74.1431 38.008 74.3484 37.756 74.6004 37.532C74.8524 37.308 75.1371 37.1307 75.4544 37C75.7811 36.86 76.1217 36.79 76.4764 36.79ZM85.6199 42.866C85.5453 42.754 85.5079 42.6467 85.5079 42.544C85.5173 42.432 85.5779 42.3433 85.6899 42.278C85.7646 42.2127 85.8486 42.1847 85.9419 42.194C86.0446 42.2033 86.1379 42.25 86.2219 42.334C86.4739 42.6607 86.7773 42.9267 87.1319 43.132C87.4959 43.328 87.9253 43.426 88.4199 43.426C88.6813 43.426 88.9379 43.384 89.1899 43.3C89.4513 43.2067 89.6659 43.0713 89.8339 42.894C90.0019 42.7073 90.0859 42.474 90.0859 42.194C90.0859 41.9047 90.0019 41.6713 89.8339 41.494C89.6659 41.3167 89.4466 41.1767 89.1759 41.074C88.9146 40.9713 88.6346 40.8827 88.3359 40.808C88.0186 40.724 87.7106 40.6307 87.4119 40.528C87.1133 40.416 86.8473 40.2807 86.6139 40.122C86.3899 39.954 86.2079 39.7533 86.0679 39.52C85.9279 39.2867 85.8579 39.002 85.8579 38.666C85.8579 38.274 85.9653 37.9287 86.1799 37.63C86.3946 37.3313 86.6839 37.098 87.0479 36.93C87.4213 36.762 87.8413 36.678 88.3079 36.678C88.5413 36.678 88.7933 36.7107 89.0639 36.776C89.3346 36.832 89.6006 36.93 89.8619 37.07C90.1233 37.21 90.3566 37.4013 90.5619 37.644C90.6459 37.728 90.6879 37.826 90.6879 37.938C90.6879 38.0407 90.6413 38.134 90.5479 38.218C90.4733 38.274 90.3846 38.302 90.2819 38.302C90.1886 38.302 90.1093 38.2647 90.0439 38.19C89.8199 37.938 89.5539 37.7467 89.2459 37.616C88.9379 37.4853 88.6066 37.42 88.2519 37.42C87.9813 37.42 87.7246 37.4667 87.4819 37.56C87.2486 37.644 87.0526 37.7747 86.8939 37.952C86.7353 38.1293 86.6559 38.3627 86.6559 38.652C86.6746 38.9227 86.7679 39.142 86.9359 39.31C87.1133 39.478 87.3419 39.618 87.6219 39.73C87.9113 39.842 88.2333 39.9447 88.5879 40.038C88.8866 40.1127 89.1713 40.2013 89.4419 40.304C89.7219 40.4067 89.9646 40.5373 90.1699 40.696C90.3846 40.8453 90.5526 41.0367 90.6739 41.27C90.8046 41.5033 90.8699 41.7973 90.8699 42.152C90.8699 42.5627 90.7533 42.9173 90.5199 43.216C90.2959 43.5147 89.9926 43.7433 89.6099 43.902C89.2273 44.0607 88.8026 44.14 88.3359 44.14C87.8319 44.14 87.3419 44.042 86.8659 43.846C86.3993 43.65 85.9839 43.3233 85.6199 42.866ZM99.1185 44.14C98.4559 44.14 97.8679 43.986 97.3545 43.678C96.8412 43.37 96.4399 42.9733 96.1505 42.488C95.8705 42.0027 95.7305 41.4893 95.7305 40.948C95.7305 40.5373 95.8099 40.1407 95.9685 39.758C96.1365 39.3753 96.3839 39.0347 96.7105 38.736C97.0465 38.428 97.4712 38.1853 97.9845 38.008L98.5865 38.61C97.8585 38.778 97.3452 39.0673 97.0465 39.478C96.7479 39.8887 96.5985 40.3413 96.5985 40.836C96.5985 41.256 96.6965 41.6573 96.8925 42.04C97.0885 42.4133 97.3825 42.7213 97.7745 42.964C98.1665 43.2067 98.6472 43.328 99.2165 43.328C99.8232 43.328 100.341 43.23 100.771 43.034C101.209 42.8287 101.578 42.5627 101.877 42.236C102.175 41.9 102.413 41.5267 102.591 41.116C102.768 40.696 102.899 40.2713 102.983 39.842C103.001 39.7487 103.039 39.6787 103.095 39.632C103.16 39.576 103.249 39.548 103.361 39.548C103.491 39.548 103.594 39.5947 103.669 39.688C103.743 39.7813 103.771 39.898 103.753 40.038C103.669 40.542 103.515 41.0367 103.291 41.522C103.067 42.0073 102.763 42.4507 102.381 42.852C101.998 43.244 101.536 43.5567 100.995 43.79C100.453 44.0233 99.8279 44.14 99.1185 44.14ZM104.089 43.958C104.042 43.958 103.995 43.9533 103.949 43.944C103.911 43.9253 103.874 43.9067 103.837 43.888C103.267 43.44 102.717 43.0107 102.185 42.6C101.662 42.18 101.139 41.7273 100.617 41.242C100.103 40.7567 99.5619 40.1967 98.9925 39.562C98.6659 39.1887 98.3719 38.8247 98.1105 38.47C97.8492 38.106 97.6392 37.7513 97.4805 37.406C97.3219 37.0513 97.2425 36.7013 97.2425 36.356C97.2425 35.9267 97.3499 35.5393 97.5645 35.194C97.7792 34.8393 98.0825 34.564 98.4745 34.368C98.8665 34.1627 99.3332 34.06 99.8745 34.06C100.547 34.06 101.102 34.186 101.541 34.438C101.979 34.69 102.287 34.9887 102.465 35.334C102.474 35.3433 102.488 35.376 102.507 35.432C102.525 35.4787 102.535 35.5347 102.535 35.6C102.535 35.684 102.497 35.7633 102.423 35.838C102.357 35.9127 102.264 35.95 102.143 35.95C102.068 35.95 102.003 35.936 101.947 35.908C101.9 35.88 101.863 35.8427 101.835 35.796C101.648 35.516 101.401 35.2873 101.093 35.11C100.794 34.9233 100.388 34.83 99.8745 34.83C99.3052 34.83 98.8712 34.9747 98.5725 35.264C98.2739 35.544 98.1245 35.908 98.1245 36.356C98.1245 36.6453 98.2039 36.9533 98.3625 37.28C98.5212 37.5973 98.7219 37.9193 98.9645 38.246C99.2165 38.5727 99.4779 38.89 99.7485 39.198C100.122 39.618 100.514 40.0287 100.925 40.43C101.345 40.822 101.755 41.1907 102.157 41.536C102.567 41.8813 102.955 42.194 103.319 42.474C103.683 42.754 104.005 43.0013 104.285 43.216C104.35 43.2627 104.397 43.314 104.425 43.37C104.453 43.426 104.467 43.4913 104.467 43.566C104.467 43.6407 104.434 43.7247 104.369 43.818C104.303 43.9113 104.21 43.958 104.089 43.958ZM112.659 44.14C111.949 44.1493 111.333 44.0373 110.811 43.804C110.288 43.5707 109.789 43.2207 109.313 42.754C109.266 42.7167 109.224 42.67 109.187 42.614C109.159 42.558 109.145 42.4927 109.145 42.418C109.145 42.306 109.187 42.2033 109.271 42.11C109.364 42.0167 109.467 41.97 109.579 41.97C109.691 41.97 109.793 42.0167 109.887 42.11C110.251 42.502 110.661 42.8007 111.119 43.006C111.585 43.2113 112.085 43.314 112.617 43.314C113.065 43.314 113.461 43.244 113.807 43.104C114.161 42.964 114.441 42.7633 114.647 42.502C114.852 42.2407 114.955 41.9373 114.955 41.592C114.955 41.1627 114.838 40.8173 114.605 40.556C114.371 40.2853 114.063 40.066 113.681 39.898C113.298 39.7207 112.873 39.562 112.407 39.422C112.024 39.31 111.66 39.184 111.315 39.044C110.969 38.8947 110.661 38.7173 110.391 38.512C110.12 38.2973 109.91 38.036 109.761 37.728C109.611 37.42 109.537 37.0467 109.537 36.608C109.537 36.1133 109.667 35.6747 109.929 35.292C110.19 34.9093 110.559 34.6107 111.035 34.396C111.52 34.172 112.08 34.06 112.715 34.06C113.265 34.06 113.793 34.1533 114.297 34.34C114.81 34.5267 115.216 34.802 115.515 35.166C115.655 35.3153 115.725 35.4507 115.725 35.572C115.725 35.6653 115.678 35.7587 115.585 35.852C115.491 35.9453 115.389 35.992 115.277 35.992C115.183 35.992 115.104 35.9593 115.039 35.894C114.88 35.698 114.679 35.5253 114.437 35.376C114.194 35.2173 113.923 35.096 113.625 35.012C113.335 34.928 113.032 34.886 112.715 34.886C112.276 34.886 111.879 34.956 111.525 35.096C111.179 35.2267 110.904 35.418 110.699 35.67C110.503 35.922 110.405 36.2253 110.405 36.58C110.405 36.972 110.517 37.294 110.741 37.546C110.965 37.798 111.259 38.008 111.623 38.176C111.987 38.3347 112.374 38.484 112.785 38.624C113.186 38.736 113.569 38.8667 113.933 39.016C114.306 39.156 114.633 39.3333 114.913 39.548C115.202 39.7627 115.426 40.0333 115.585 40.36C115.753 40.6867 115.837 41.0973 115.837 41.592C115.837 42.068 115.701 42.4973 115.431 42.88C115.16 43.2627 114.787 43.566 114.311 43.79C113.844 44.014 113.293 44.1307 112.659 44.14ZM120.842 44.14C120.123 44.14 119.489 43.986 118.938 43.678C118.387 43.37 117.958 42.9407 117.65 42.39C117.342 41.8393 117.188 41.1953 117.188 40.458C117.188 39.6647 117.342 38.988 117.65 38.428C117.967 37.868 118.373 37.4387 118.868 37.14C119.372 36.832 119.904 36.678 120.464 36.678C120.875 36.678 121.271 36.7527 121.654 36.902C122.046 37.042 122.391 37.2567 122.69 37.546C122.998 37.826 123.241 38.1713 123.418 38.582C123.605 38.9927 123.707 39.4687 123.726 40.01C123.717 40.122 123.67 40.22 123.586 40.304C123.502 40.3787 123.404 40.416 123.292 40.416H117.678L117.51 39.66H123.026L122.844 39.828V39.548C122.807 39.1093 122.667 38.736 122.424 38.428C122.181 38.12 121.887 37.8867 121.542 37.728C121.197 37.5693 120.837 37.49 120.464 37.49C120.184 37.49 119.895 37.546 119.596 37.658C119.307 37.77 119.041 37.9473 118.798 38.19C118.565 38.4233 118.373 38.7267 118.224 39.1C118.075 39.464 118 39.898 118 40.402C118 40.9527 118.112 41.452 118.336 41.9C118.56 42.348 118.882 42.7027 119.302 42.964C119.731 43.2253 120.24 43.356 120.828 43.356C121.155 43.356 121.449 43.3093 121.71 43.216C121.971 43.1227 122.2 43.0013 122.396 42.852C122.592 42.6933 122.755 42.53 122.886 42.362C122.989 42.278 123.091 42.236 123.194 42.236C123.287 42.236 123.367 42.2733 123.432 42.348C123.507 42.4227 123.544 42.5067 123.544 42.6C123.544 42.712 123.497 42.81 123.404 42.894C123.124 43.23 122.76 43.524 122.312 43.776C121.864 44.0187 121.374 44.14 120.842 44.14ZM125.944 44C125.813 44 125.711 43.958 125.636 43.874C125.561 43.79 125.524 43.692 125.524 43.58V37.308C125.524 37.196 125.561 37.098 125.636 37.014C125.72 36.93 125.823 36.888 125.944 36.888C126.065 36.888 126.163 36.93 126.238 37.014C126.322 37.098 126.364 37.196 126.364 37.308V39.408L126.154 39.45C126.182 39.1233 126.261 38.8013 126.392 38.484C126.532 38.1573 126.719 37.8587 126.952 37.588C127.185 37.3173 127.461 37.098 127.778 36.93C128.105 36.762 128.469 36.678 128.87 36.678C129.038 36.678 129.201 36.7153 129.36 36.79C129.519 36.8553 129.598 36.9673 129.598 37.126C129.598 37.266 129.561 37.3733 129.486 37.448C129.411 37.5227 129.323 37.56 129.22 37.56C129.136 37.56 129.043 37.5367 128.94 37.49C128.847 37.4433 128.721 37.42 128.562 37.42C128.301 37.42 128.039 37.4993 127.778 37.658C127.517 37.8073 127.279 38.0127 127.064 38.274C126.849 38.5353 126.677 38.8293 126.546 39.156C126.425 39.4733 126.364 39.7953 126.364 40.122V43.58C126.364 43.692 126.322 43.79 126.238 43.874C126.154 43.958 126.056 44 125.944 44ZM131.723 43.58C131.723 43.692 131.681 43.79 131.597 43.874C131.513 43.958 131.415 44 131.303 44C131.181 44 131.079 43.958 130.995 43.874C130.92 43.79 130.883 43.692 130.883 43.58V37.14C130.883 37.028 130.92 36.93 130.995 36.846C131.079 36.762 131.181 36.72 131.303 36.72C131.424 36.72 131.522 36.762 131.597 36.846C131.681 36.93 131.723 37.028 131.723 37.14V43.58ZM131.303 35.782C131.107 35.782 130.957 35.74 130.855 35.656C130.761 35.5627 130.715 35.432 130.715 35.264V35.124C130.715 34.956 130.766 34.83 130.869 34.746C130.981 34.6527 131.13 34.606 131.317 34.606C131.494 34.606 131.629 34.6527 131.723 34.746C131.825 34.83 131.877 34.956 131.877 35.124V35.264C131.877 35.432 131.825 35.5627 131.723 35.656C131.629 35.74 131.489 35.782 131.303 35.782ZM139.771 36.846C139.892 36.846 139.99 36.888 140.065 36.972C140.149 37.056 140.191 37.1587 140.191 37.28V43.58C140.191 43.692 140.149 43.79 140.065 43.874C139.981 43.958 139.883 44 139.771 44C139.649 44 139.547 43.958 139.463 43.874C139.388 43.79 139.351 43.692 139.351 43.58V41.914L139.589 41.802C139.589 42.0633 139.514 42.3293 139.365 42.6C139.225 42.8707 139.029 43.1227 138.777 43.356C138.525 43.5893 138.226 43.7807 137.881 43.93C137.545 44.07 137.181 44.14 136.789 44.14C136.154 44.14 135.585 43.9767 135.081 43.65C134.586 43.3233 134.194 42.8753 133.905 42.306C133.625 41.7367 133.485 41.0973 133.485 40.388C133.485 39.66 133.629 39.0207 133.919 38.47C134.208 37.91 134.6 37.4713 135.095 37.154C135.589 36.8367 136.149 36.678 136.775 36.678C137.176 36.678 137.549 36.748 137.895 36.888C138.249 37.028 138.557 37.2193 138.819 37.462C139.08 37.7047 139.281 37.9847 139.421 38.302C139.57 38.61 139.645 38.932 139.645 39.268L139.351 39.058V37.28C139.351 37.1587 139.388 37.056 139.463 36.972C139.547 36.888 139.649 36.846 139.771 36.846ZM136.859 43.356C137.353 43.356 137.792 43.23 138.175 42.978C138.557 42.7167 138.856 42.362 139.071 41.914C139.295 41.4567 139.407 40.948 139.407 40.388C139.407 39.8373 139.295 39.3427 139.071 38.904C138.856 38.4653 138.557 38.1153 138.175 37.854C137.792 37.5927 137.353 37.462 136.859 37.462C136.373 37.462 135.935 37.588 135.543 37.84C135.16 38.092 134.857 38.4373 134.633 38.876C134.418 39.3147 134.311 39.8187 134.311 40.388C134.311 40.948 134.418 41.4567 134.633 41.914C134.857 42.362 135.16 42.7167 135.543 42.978C135.925 43.23 136.364 43.356 136.859 43.356ZM143.319 43.58C143.319 43.692 143.277 43.79 143.193 43.874C143.109 43.958 143.011 44 142.899 44C142.778 44 142.675 43.958 142.591 43.874C142.516 43.79 142.479 43.692 142.479 43.58V34.06C142.479 33.948 142.521 33.85 142.605 33.766C142.689 33.682 142.787 33.64 142.899 33.64C143.02 33.64 143.118 33.682 143.193 33.766C143.277 33.85 143.319 33.948 143.319 34.06V43.58ZM145.216 42.866C145.141 42.754 145.104 42.6467 145.104 42.544C145.113 42.432 145.174 42.3433 145.286 42.278C145.36 42.2127 145.444 42.1847 145.538 42.194C145.64 42.2033 145.734 42.25 145.818 42.334C146.07 42.6607 146.373 42.9267 146.728 43.132C147.092 43.328 147.521 43.426 148.016 43.426C148.277 43.426 148.534 43.384 148.786 43.3C149.047 43.2067 149.262 43.0713 149.43 42.894C149.598 42.7073 149.682 42.474 149.682 42.194C149.682 41.9047 149.598 41.6713 149.43 41.494C149.262 41.3167 149.042 41.1767 148.772 41.074C148.51 40.9713 148.23 40.8827 147.932 40.808C147.614 40.724 147.306 40.6307 147.008 40.528C146.709 40.416 146.443 40.2807 146.21 40.122C145.986 39.954 145.804 39.7533 145.664 39.52C145.524 39.2867 145.454 39.002 145.454 38.666C145.454 38.274 145.561 37.9287 145.776 37.63C145.99 37.3313 146.28 37.098 146.644 36.93C147.017 36.762 147.437 36.678 147.904 36.678C148.137 36.678 148.389 36.7107 148.66 36.776C148.93 36.832 149.196 36.93 149.458 37.07C149.719 37.21 149.952 37.4013 150.158 37.644C150.242 37.728 150.284 37.826 150.284 37.938C150.284 38.0407 150.237 38.134 150.144 38.218C150.069 38.274 149.98 38.302 149.878 38.302C149.784 38.302 149.705 38.2647 149.64 38.19C149.416 37.938 149.15 37.7467 148.842 37.616C148.534 37.4853 148.202 37.42 147.848 37.42C147.577 37.42 147.32 37.4667 147.078 37.56C146.844 37.644 146.648 37.7747 146.49 37.952C146.331 38.1293 146.252 38.3627 146.252 38.652C146.27 38.9227 146.364 39.142 146.532 39.31C146.709 39.478 146.938 39.618 147.218 39.73C147.507 39.842 147.829 39.9447 148.184 40.038C148.482 40.1127 148.767 40.2013 149.038 40.304C149.318 40.4067 149.56 40.5373 149.766 40.696C149.98 40.8453 150.148 41.0367 150.27 41.27C150.4 41.5033 150.466 41.7973 150.466 42.152C150.466 42.5627 150.349 42.9173 150.116 43.216C149.892 43.5147 149.588 43.7433 149.206 43.902C148.823 44.0607 148.398 44.14 147.932 44.14C147.428 44.14 146.938 44.042 146.462 43.846C145.995 43.65 145.58 43.3233 145.216 42.866Z" fill="white"/>
</svg>
