<svg width="160" height="30" viewBox="0 0 160 30" fill="none" xmlns="http://www.w3.org/2000/svg">
<path d="M10.7839 25.4614C7.7014 28.6337 2.48082 28.621 1.02285 24.3931C0.737398 23.5654 0.50917 22.7143 0.34131 21.8458C-0.344061 18.2998 0.00769621 14.6245 1.3521 11.2843C2.69651 7.94415 4.97317 5.08926 7.89421 3.08067C10.8153 1.07208 14.2495 -1.54868e-07 17.7626 0C21.2757 1.54869e-07 24.7099 1.07208 27.6309 3.08067C30.552 5.08926 32.8286 7.94415 34.173 11.2844C35.5174 14.6245 35.8691 18.2998 35.1838 21.8458C35.016 22.7143 34.7877 23.5654 34.5022 24.3931C33.0442 28.621 27.8237 28.6337 24.7412 25.4614L19.9829 20.5646C19.5283 20.0967 19.5752 19.3252 19.7006 18.6763C19.7768 18.2819 19.7377 17.873 19.5881 17.5014C19.4386 17.1298 19.1853 16.8122 18.8604 16.5888C18.5354 16.3654 18.1534 16.2461 17.7626 16.2461C17.3718 16.2461 16.9897 16.3654 16.6648 16.5888C16.3397 16.8122 16.0865 17.1298 15.9369 17.5014C15.7874 17.873 15.7482 18.2819 15.8245 18.6763C15.9499 19.3252 15.9968 20.0967 15.5422 20.5646L10.7839 25.4614Z" fill="white"/>
<path d="M49.9762 21.0711H54.7507V23.9666H46.3313V8.56787H49.9762V21.0711Z" fill="white"/>
<path d="M61.2637 24.1428C60.0985 24.1428 59.047 23.8869 58.1091 23.375C57.1855 22.8632 56.4536 22.132 55.9136 21.1815C55.3879 20.2309 55.125 19.1195 55.125 17.8472C55.125 16.5896 55.3949 15.4855 55.9349 14.5349C56.475 13.5698 57.2139 12.8313 58.1517 12.3195C59.0896 11.8077 60.1412 11.5518 61.3064 11.5518C62.4716 11.5518 63.5231 11.8077 64.461 12.3195C65.3989 12.8313 66.1378 13.5698 66.6777 14.5349C67.2177 15.4855 67.4877 16.5896 67.4877 17.8472C67.4877 19.1049 67.2106 20.2163 66.6565 21.1815C66.1165 22.132 65.3705 22.8632 64.4183 23.375C63.4805 23.8869 62.4289 24.1428 61.2637 24.1428ZM61.2637 20.8962C61.96 20.8962 62.5497 20.6331 63.0329 20.1066C63.5303 19.5801 63.7789 18.8271 63.7789 17.8472C63.7789 16.8674 63.5373 16.1144 63.0542 15.5879C62.5852 15.0614 62.0026 14.7982 61.3064 14.7982C60.5959 14.7982 60.0061 15.0614 59.5372 15.5879C59.0682 16.0997 58.8338 16.8528 58.8338 17.8472C58.8338 18.8271 59.0612 19.5801 59.5159 20.1066C59.9849 20.6331 60.5675 20.8962 61.2637 20.8962Z" fill="white"/>
<path d="M73.3008 11.5518C74.1392 11.5518 74.8711 11.7273 75.4963 12.0782C76.1357 12.4291 76.626 12.8898 76.9671 13.4601V11.7273H80.6119V23.9453C80.6119 25.0713 80.3917 26.0877 79.9511 26.9943C79.5248 27.9156 78.8641 28.6468 77.9689 29.1879C77.0879 29.729 75.9866 29.9996 74.6651 29.9996C72.903 29.9996 71.4749 29.5682 70.3807 28.7054C69.2866 27.8571 68.6612 26.7019 68.505 25.2395H72.1072C72.2209 25.7074 72.4909 26.0731 72.9172 26.3363C73.3435 26.6141 73.8693 26.7531 74.4945 26.7531C75.2477 26.7531 75.8444 26.5264 76.285 26.0731C76.7397 25.6343 76.9671 24.9251 76.9671 23.9453V22.2124C76.6118 22.7827 76.1216 23.2507 75.4963 23.6163C74.8711 23.9673 74.1392 24.1428 73.3008 24.1428C72.3204 24.1428 71.4322 23.8868 70.6365 23.375C69.8407 22.8485 69.2083 22.11 68.7395 21.1595C68.2848 20.1944 68.0574 19.083 68.0574 17.8253C68.0574 16.5677 68.2848 15.4636 68.7395 14.513C69.2083 13.5625 69.8407 12.8313 70.6365 12.3195C71.4322 11.8077 72.3204 11.5518 73.3008 11.5518ZM76.9671 17.8472C76.9671 16.9113 76.7113 16.1728 76.1997 15.6318C75.7024 15.0907 75.0913 14.8202 74.3666 14.8202C73.6419 14.8202 73.0238 15.0907 72.5122 15.6318C72.0148 16.1582 71.7662 16.8894 71.7662 17.8253C71.7662 18.7612 72.0148 19.5071 72.5122 20.0628C73.0238 20.6038 73.6419 20.8744 74.3666 20.8744C75.0913 20.8744 75.7024 20.6038 76.1997 20.0628C76.7113 19.5216 76.9671 18.7832 76.9671 17.8472Z" fill="white"/>
<path d="M88.0235 24.1428C86.8583 24.1428 85.8067 23.8869 84.8689 23.375C83.9453 22.8632 83.2134 22.132 82.6734 21.1815C82.1477 20.2309 81.8848 19.1195 81.8848 17.8472C81.8848 16.5896 82.1547 15.4855 82.6948 14.5349C83.2348 13.5698 83.9736 12.8313 84.9114 12.3195C85.8494 11.8077 86.9009 11.5518 88.0661 11.5518C89.2314 11.5518 90.2829 11.8077 91.2207 12.3195C92.1586 12.8313 92.8975 13.5698 93.4375 14.5349C93.9775 15.4855 94.2475 16.5896 94.2475 17.8472C94.2475 19.1049 93.9705 20.2163 93.4162 21.1815C92.8763 22.132 92.1302 22.8632 91.1781 23.375C90.2403 23.8869 89.1887 24.1428 88.0235 24.1428ZM88.0235 20.8962C88.7198 20.8962 89.3095 20.6331 89.7927 20.1066C90.29 19.5801 90.5387 18.8271 90.5387 17.8472C90.5387 16.8674 90.2971 16.1144 89.814 15.5879C89.345 15.0614 88.7624 14.7982 88.0661 14.7982C87.3556 14.7982 86.7659 15.0614 86.2969 15.5879C85.8281 16.0997 85.5936 16.8528 85.5936 17.8472C85.5936 18.8271 85.821 19.5801 86.2757 20.1066C86.7446 20.6331 87.3272 20.8962 88.0235 20.8962Z" fill="white"/>
<path d="M97.3748 10.4546C96.7353 10.4546 96.2096 10.2645 95.7975 9.88424C95.3996 9.4894 95.2007 9.00682 95.2007 8.4365C95.2007 7.85155 95.3996 7.36896 95.7975 6.98874C96.2096 6.5939 96.7353 6.39648 97.3748 6.39648C98.0001 6.39648 98.5116 6.5939 98.9095 6.98874C99.3216 7.36896 99.5276 7.85155 99.5276 8.4365C99.5276 9.00682 99.3216 9.4894 98.9095 9.88424C98.5116 10.2645 98.0001 10.4546 97.3748 10.4546ZM99.1865 11.7268V23.9669H95.5417V11.7268H99.1865Z" fill="white"/>
<path d="M104.833 13.4601C105.188 12.8898 105.678 12.4291 106.304 12.0782C106.93 11.7273 107.661 11.5518 108.5 11.5518C109.48 11.5518 110.368 11.8077 111.164 12.3195C111.96 12.8313 112.585 13.5625 113.04 14.513C113.508 15.4636 113.744 16.5677 113.744 17.8253C113.744 19.083 113.508 20.1944 113.04 21.1595C112.585 22.11 111.96 22.8486 111.164 23.375C110.368 23.8869 109.48 24.1428 108.5 24.1428C107.675 24.1428 106.944 23.9673 106.304 23.6163C105.678 23.2653 105.188 22.812 104.833 22.2563V29.8021H101.188V11.7273H104.833V13.4601ZM110.035 17.8253C110.035 16.8894 109.779 16.1582 109.267 15.6318C108.769 15.0907 108.152 14.8202 107.413 14.8202C106.688 14.8202 106.07 15.0907 105.558 15.6318C105.061 16.1728 104.812 16.9113 104.812 17.8472C104.812 18.7832 105.061 19.5216 105.558 20.0628C106.07 20.6038 106.688 20.8744 107.413 20.8744C108.137 20.8744 108.756 20.6038 109.267 20.0628C109.779 19.5071 110.035 18.7612 110.035 17.8253Z" fill="white"/>
<path d="M119.854 24.1428C118.817 24.1428 117.893 23.9599 117.083 23.5944C116.274 23.2287 115.634 22.7316 115.165 22.1027C114.696 21.4593 114.433 20.7427 114.376 19.953H117.979C118.021 20.3771 118.213 20.7207 118.554 20.984C118.895 21.2472 119.315 21.3788 119.812 21.3788C120.266 21.3788 120.614 21.2911 120.856 21.1156C121.112 20.9256 121.24 20.6842 121.24 20.3918C121.24 20.0408 121.062 19.7849 120.707 19.624C120.352 19.4485 119.776 19.2585 118.98 19.0537C118.127 18.849 117.417 18.6369 116.848 18.4176C116.281 18.1836 115.79 17.8253 115.379 17.3427C114.966 16.8456 114.76 16.1801 114.76 15.3466C114.76 14.6447 114.945 14.0086 115.315 13.4382C115.698 12.8533 116.252 12.3926 116.976 12.0562C117.716 11.7199 118.59 11.5518 119.598 11.5518C121.09 11.5518 122.263 11.932 123.115 12.6924C123.982 13.4529 124.48 14.4618 124.608 15.7195H121.24C121.183 15.2954 120.998 14.9591 120.685 14.7104C120.387 14.4618 119.99 14.3376 119.492 14.3376C119.066 14.3376 118.739 14.4253 118.511 14.6008C118.284 14.7616 118.171 14.9883 118.171 15.2808C118.171 15.6318 118.348 15.895 118.703 16.0705C119.073 16.246 119.641 16.4215 120.409 16.5969C121.289 16.8309 122.007 17.0649 122.561 17.2988C123.115 17.5182 123.598 17.8837 124.01 18.3957C124.437 18.8928 124.658 19.5655 124.672 20.4137C124.672 21.1303 124.473 21.7737 124.074 22.3441C123.691 22.8998 123.13 23.3385 122.391 23.6602C121.666 23.9819 120.821 24.1428 119.854 24.1428Z" fill="white"/>
<path d="M138.007 11.7275V23.9676H134.362V22.3005C133.992 22.8415 133.487 23.2802 132.848 23.6166C132.223 23.9383 131.527 24.0992 130.759 24.0992C129.85 24.0992 129.047 23.8945 128.351 23.4849C127.654 23.0609 127.114 22.454 126.731 21.6644C126.347 20.8746 126.155 19.9461 126.155 18.8785V11.7275H129.779V18.374C129.779 19.1929 129.985 19.829 130.397 20.2824C130.809 20.7357 131.363 20.9624 132.06 20.9624C132.77 20.9624 133.332 20.7357 133.743 20.2824C134.155 19.829 134.362 19.1929 134.362 18.374V11.7275H138.007Z" fill="white"/>
<path d="M155.162 11.5977C156.639 11.5977 157.812 12.0583 158.679 12.9796C159.559 13.9008 160 15.1804 160 16.8183V23.9693H156.377V17.3229C156.377 16.5331 156.17 15.9262 155.759 15.5022C155.36 15.0634 154.807 14.8441 154.096 14.8441C153.385 14.8441 152.824 15.0634 152.412 15.5022C152.015 15.9262 151.815 16.5331 151.815 17.3229V23.9693H148.191V17.3229C148.191 16.5331 147.986 15.9262 147.574 15.5022C147.175 15.0634 146.621 14.8441 145.911 14.8441C145.201 14.8441 144.639 15.0634 144.227 15.5022C143.829 15.9262 143.631 16.5331 143.631 17.3229V23.9693H139.986V11.7293H143.631V13.2647C144 12.7529 144.483 12.3507 145.08 12.0583C145.676 11.7512 146.352 11.5977 147.104 11.5977C148 11.5977 148.796 11.795 149.492 12.1899C150.202 12.5848 150.756 13.1478 151.155 13.879C151.567 13.2062 152.128 12.6578 152.838 12.2338C153.548 11.8097 154.324 11.5977 155.162 11.5977Z" fill="white"/>
</svg>
