<svg width="160" height="40" viewBox="0 0 160 40" fill="none" xmlns="http://www.w3.org/2000/svg">
<path d="M46.6348 28.5003H58.1202V24.9003H50.7169V11.3403H46.6348V28.5003Z" fill="white"/>
<path d="M64.9251 26.1C63.2877 26.1 62.4343 24.612 62.4343 22.38C62.4343 20.148 63.2877 18.636 64.9251 18.636C66.5626 18.636 67.439 20.148 67.439 22.38C67.439 24.612 66.5626 26.1 64.9251 26.1ZM64.9482 28.884C68.7536 28.884 71.2444 26.076 71.2444 22.38C71.2444 18.684 68.7536 15.876 64.9482 15.876C61.1658 15.876 58.6289 18.684 58.6289 22.38C58.6289 26.076 61.1658 28.884 64.9482 28.884Z" fill="white"/>
<path d="M77.8312 32.7476C79.584 32.7476 81.1293 32.3396 82.1671 31.3796C83.1127 30.4916 83.7354 29.1476 83.7354 27.2996V16.2116H80.1376V17.5316H80.0914C79.3995 16.4996 78.3386 15.8516 76.7703 15.8516C73.8413 15.8516 71.8118 18.3956 71.8118 21.9956C71.8118 25.7636 74.2795 27.8276 76.9318 27.8276C78.3617 27.8276 79.2612 27.2276 79.9531 26.4116H80.0453V27.6356C80.0453 29.1236 79.3765 29.9876 77.7851 29.9876C76.5397 29.9876 75.917 29.4356 75.7094 28.7876H72.0655C72.4345 31.3556 74.5793 32.7476 77.8312 32.7476ZM77.8082 24.9236C76.4013 24.9236 75.4788 23.7236 75.4788 21.8756C75.4788 20.0036 76.4013 18.8036 77.8082 18.8036C79.3765 18.8036 80.2067 20.1956 80.2067 21.8516C80.2067 23.5796 79.4457 24.9236 77.8082 24.9236Z" fill="white"/>
<path d="M91.1331 26.1C89.4957 26.1 88.6423 24.612 88.6423 22.38C88.6423 20.148 89.4957 18.636 91.1331 18.636C92.7706 18.636 93.647 20.148 93.647 22.38C93.647 24.612 92.7706 26.1 91.1331 26.1ZM91.1562 28.884C94.9616 28.884 97.4527 26.076 97.4527 22.38C97.4527 18.684 94.9616 15.876 91.1562 15.876C87.3739 15.876 84.8369 18.684 84.8369 22.38C84.8369 26.076 87.3739 28.884 91.1562 28.884Z" fill="white"/>
<path d="M98.5503 28.5003H102.31V16.2123H98.5503V28.5003ZM98.5503 14.5083H102.31V11.3403H98.5503V14.5083Z" fill="white"/>
<path d="M103.94 32.5556H107.699V27.2276H107.746C108.484 28.2596 109.568 28.8836 111.09 28.8836C114.18 28.8836 116.233 26.3396 116.233 22.3556C116.233 18.6596 114.319 15.8516 111.182 15.8516C109.568 15.8516 108.414 16.5956 107.607 17.6996H107.538V16.2116H103.94V32.5556ZM110.121 25.8596C108.507 25.8596 107.584 24.4916 107.584 22.4996C107.584 20.5076 108.414 18.9956 110.052 18.9956C111.666 18.9956 112.427 20.3876 112.427 22.4996C112.427 24.5876 111.551 25.8596 110.121 25.8596Z" fill="white"/>
<path d="M122.354 28.8836C125.445 28.8836 127.728 27.4916 127.728 24.8036C127.728 21.6596 125.283 21.1076 123.208 20.7476C121.709 20.4596 120.371 20.3396 120.371 19.4756C120.371 18.7076 121.086 18.3476 122.008 18.3476C123.046 18.3476 123.761 18.6836 123.9 19.7876H127.359C127.174 17.3636 125.376 15.8516 122.031 15.8516C119.241 15.8516 116.934 17.1956 116.934 19.7876C116.934 22.6676 119.125 23.2436 121.178 23.6036C122.746 23.8916 124.176 24.0116 124.176 25.1156C124.176 25.9076 123.461 26.3396 122.331 26.3396C121.086 26.3396 120.302 25.7396 120.163 24.5156H116.612C116.727 27.2276 118.895 28.8836 122.354 28.8836Z" fill="white"/>
<path d="M132.833 28.8594C134.471 28.8594 135.509 28.1874 136.362 26.9874H136.431V28.4994H140.029V16.2114H136.27V23.0754C136.27 24.5394 135.486 25.5474 134.194 25.5474C132.995 25.5474 132.418 24.8034 132.418 23.4594V16.2114H128.682V24.2754C128.682 27.0114 130.112 28.8594 132.833 28.8594Z" fill="white"/>
<path d="M141.665 28.4996H145.424V21.6116C145.424 20.1476 146.116 19.1156 147.292 19.1156C148.422 19.1156 148.953 19.8836 148.953 21.2036V28.4996H152.712V21.6116C152.712 20.1476 153.381 19.1156 154.58 19.1156C155.71 19.1156 156.241 19.8836 156.241 21.2036V28.4996H160V20.5076C160 17.7476 158.662 15.8516 155.987 15.8516C154.465 15.8516 153.196 16.5236 152.274 18.0116H152.228C151.628 16.6916 150.452 15.8516 148.907 15.8516C147.2 15.8516 146.07 16.6916 145.332 17.9636H145.263V16.2116H141.665V28.4996Z" fill="white"/>
<path fill-rule="evenodd" clip-rule="evenodd" d="M8.21886 3.59787C6.84405 4.59823 5.60085 5.78098 4.52164 7.1124C8.93179 6.68633 14.5347 7.38205 21.0397 10.7667C27.9861 14.3809 33.5797 14.5031 37.4725 13.7217C37.1193 12.6088 36.6746 11.5392 36.1479 10.5224C31.6916 11.0115 25.9787 10.3641 19.3207 6.89998C15.0929 4.70018 11.366 3.79401 8.21886 3.59787ZM33.5447 6.66665C30.0256 2.575 24.9114 0 19.2192 0C17.5476 0 15.9257 0.222107 14.3795 0.63948C16.4737 1.23409 18.6983 2.10399 21.0397 3.32227C25.9143 5.85853 30.1227 6.67516 33.5447 6.66665ZM38.3048 17.6281C33.6019 18.5945 27.1076 18.396 19.3207 14.3444C12.0408 10.5566 6.24668 10.6043 2.33889 11.508C2.13718 11.5546 1.94022 11.6036 1.74802 11.6546C1.2364 12.8125 0.827999 14.0301 0.53497 15.2945C0.847941 15.2075 1.17135 15.1248 1.50502 15.0476C6.24585 13.9513 12.9442 13.9989 21.0397 18.2111C28.3197 21.9989 34.1138 21.9512 38.0216 21.0475C38.1555 21.0166 38.2874 20.9846 38.4172 20.9516C38.4314 20.6363 38.4385 20.319 38.4385 20C38.4385 19.1975 38.3932 18.406 38.3048 17.6281ZM37.7897 25.1723C33.1324 26.0196 26.8272 25.6944 19.3207 21.7888C12.0408 18.001 6.24668 18.0487 2.33889 18.9524C1.47148 19.1529 0.691163 19.3972 0.00281562 19.6551C0.000938862 19.7698 0 19.8848 0 20C0 31.0457 8.60475 40 19.2192 40C28.115 40 35.5991 33.7109 37.7897 25.1723Z" fill="white"/>
</svg>
