<svg width="160" height="38" viewBox="0 0 160 38" fill="none" xmlns="http://www.w3.org/2000/svg">
<path d="M48.4087 27.5133H59.7144V24.108H52.427V11.2812H48.4087V27.5133Z" fill="white"/>
<path d="M66.4125 25.2434C64.8007 25.2434 63.9607 23.8359 63.9607 21.7246C63.9607 19.6133 64.8007 18.183 66.4125 18.183C68.0244 18.183 68.8871 19.6133 68.8871 21.7246C68.8871 23.8359 68.0244 25.2434 66.4125 25.2434ZM66.4353 27.8769C70.1811 27.8769 72.633 25.2207 72.633 21.7246C72.633 18.2284 70.1811 15.5723 66.4353 15.5723C62.7121 15.5723 60.2148 18.2284 60.2148 21.7246C60.2148 25.2207 62.7121 27.8769 66.4353 27.8769Z" fill="white"/>
<path d="M79.1167 31.5317C80.8421 31.5317 82.3631 31.1457 83.3847 30.2376C84.3155 29.3977 84.9285 28.1263 84.9285 26.3783V15.8899H81.3869V17.1385H81.3415C80.6604 16.1623 79.6161 15.5493 78.0724 15.5493C75.1892 15.5493 73.1914 17.9558 73.1914 21.3611C73.1914 24.9253 75.6205 26.8777 78.2313 26.8777C79.6388 26.8777 80.5242 26.3102 81.2053 25.5383H81.2961V26.6961C81.2961 28.1036 80.6377 28.9209 79.0713 28.9209C77.8454 28.9209 77.2324 28.3988 77.0281 27.7858H73.4411C73.8044 30.2149 75.9157 31.5317 79.1167 31.5317ZM79.094 24.1308C77.7092 24.1308 76.8011 22.9956 76.8011 21.2476C76.8011 19.4768 77.7092 18.3417 79.094 18.3417C80.6377 18.3417 81.455 19.6584 81.455 21.2249C81.455 22.8594 80.7058 24.1308 79.094 24.1308Z" fill="white"/>
<path d="M92.2106 25.2434C90.5988 25.2434 89.7588 23.8359 89.7588 21.7246C89.7588 19.6133 90.5988 18.183 92.2106 18.183C93.8225 18.183 94.6848 19.6133 94.6848 21.7246C94.6848 23.8359 93.8225 25.2434 92.2106 25.2434ZM92.2333 27.8769C95.9788 27.8769 98.4307 25.2207 98.4307 21.7246C98.4307 18.2284 95.9788 15.5723 92.2333 15.5723C88.5102 15.5723 86.0129 18.2284 86.0129 21.7246C86.0129 25.2207 88.5102 27.8769 92.2333 27.8769Z" fill="white"/>
<path d="M99.512 27.5133H103.212V15.8898H99.512V27.5133ZM99.512 14.2779H103.212V11.2812H99.512V14.2779Z" fill="white"/>
<path d="M104.818 31.3501H108.518V26.3102H108.563C109.29 27.2864 110.357 27.8766 111.855 27.8766C114.897 27.8766 116.918 25.4702 116.918 21.7016C116.918 18.2055 115.034 15.5493 111.946 15.5493C110.357 15.5493 109.222 16.2531 108.427 17.2974H108.359V15.8899H104.818V31.3501ZM110.902 25.0161C109.313 25.0161 108.405 23.7221 108.405 21.8378C108.405 19.9535 109.222 18.5233 110.834 18.5233C112.423 18.5233 113.172 19.84 113.172 21.8378C113.172 23.8129 112.309 25.0161 110.902 25.0161Z" fill="white"/>
<path d="M122.942 27.8766C125.985 27.8766 128.232 26.5599 128.232 24.0172C128.232 21.0433 125.826 20.5211 123.782 20.1806C122.307 19.9081 120.99 19.7946 120.99 18.9774C120.99 18.2509 121.694 17.9103 122.602 17.9103C123.623 17.9103 124.327 18.2282 124.463 19.2725H127.869C127.687 16.9796 125.916 15.5493 122.625 15.5493C119.878 15.5493 117.607 16.8206 117.607 19.2725C117.607 21.9967 119.764 22.5416 121.785 22.8821C123.328 23.1546 124.736 23.2681 124.736 24.3124C124.736 25.0615 124.032 25.4702 122.92 25.4702C121.694 25.4702 120.922 24.9026 120.786 23.7448H117.29C117.403 26.3102 119.537 27.8766 122.942 27.8766Z" fill="white"/>
<path d="M133.259 27.8537C134.871 27.8537 135.892 27.2181 136.732 26.0829H136.8V27.5132H140.342V15.8896H136.641V22.3825C136.641 23.7673 135.87 24.7208 134.598 24.7208C133.418 24.7208 132.85 24.017 132.85 22.7457V15.8896H129.172V23.5176C129.172 26.1056 130.58 27.8537 133.259 27.8537Z" fill="white"/>
<path d="M141.952 27.5134H145.652V20.9978C145.652 19.613 146.333 18.6368 147.491 18.6368C148.603 18.6368 149.126 19.3633 149.126 20.6119V27.5134H152.826V20.9978C152.826 19.613 153.484 18.6368 154.665 18.6368C155.777 18.6368 156.299 19.3633 156.299 20.6119V27.5134H160V19.9535C160 17.3428 158.683 15.5493 156.05 15.5493C154.551 15.5493 153.303 16.185 152.395 17.5925H152.349C151.759 16.3439 150.601 15.5493 149.08 15.5493C147.4 15.5493 146.288 16.3439 145.561 17.5471H145.493V15.8899H141.952V27.5134Z" fill="white"/>
<path fill-rule="evenodd" clip-rule="evenodd" d="M18.9185 37.9185C29.367 37.9185 37.837 29.4484 37.837 19C37.837 8.55164 29.367 0.081543 18.9185 0.081543C8.47009 0.081543 0 8.55164 0 19C0 29.4484 8.47009 37.9185 18.9185 37.9185ZM21.8385 14.6985C23.4512 13.0858 23.4512 10.4712 21.8385 8.85846C20.2258 7.24577 17.6112 7.24577 15.9985 8.85846C14.3859 10.4712 14.3859 13.0858 15.9985 14.6985L18.9185 17.6185L21.8385 14.6985ZM23.2201 21.9201C24.8328 23.5328 27.4474 23.5328 29.0601 21.9201C30.6727 20.3074 30.6727 17.6927 29.0601 16.08C27.4474 14.4674 24.8328 14.4674 23.2201 16.08L20.3001 19.0001L23.2201 21.9201ZM21.8385 29.1417C23.4512 27.5289 23.4512 24.9143 21.8385 23.3016L18.9185 20.3816L15.9985 23.3016C14.3859 24.9143 14.3859 27.5289 15.9985 29.1417C17.6112 30.7544 20.2258 30.7544 21.8385 29.1417ZM8.77689 21.9201C7.16424 20.3074 7.16424 17.6927 8.77689 16.08C10.3896 14.4674 13.0043 14.4674 14.617 16.08L17.5369 19.0001L14.617 21.9201C13.0043 23.5328 10.3896 23.5328 8.77689 21.9201Z" fill="white"/>
</svg>
