<svg width="160" height="40" viewBox="0 0 160 40" fill="none" xmlns="http://www.w3.org/2000/svg">
<path d="M46.9275 27.6961H58.3833V24.2456H50.9991V11.2485H46.9275V27.6961Z" fill="white"/>
<path d="M65.1704 25.3962C63.5371 25.3962 62.686 23.97 62.686 21.8306C62.686 19.6913 63.5371 18.2421 65.1704 18.2421C66.8036 18.2421 67.6777 19.6913 67.6777 21.8306C67.6777 23.97 66.8036 25.3962 65.1704 25.3962ZM65.1934 28.0646C68.9889 28.0646 71.4733 25.3732 71.4733 21.8306C71.4733 18.2881 68.9889 15.5967 65.1934 15.5967C61.4208 15.5967 58.8904 18.2881 58.8904 21.8306C58.8904 25.3732 61.4208 28.0646 65.1934 28.0646Z" fill="white"/>
<path d="M78.043 31.7678C79.7913 31.7678 81.3325 31.3767 82.3677 30.4566C83.3108 29.6054 83.9319 28.3172 83.9319 26.5459V15.9183H80.3434V17.1835H80.2973C79.6072 16.1943 78.5491 15.5732 76.9848 15.5732C74.0634 15.5732 72.0391 18.0116 72.0391 21.4622C72.0391 25.0737 74.5004 27.052 77.1459 27.052C78.5721 27.052 79.4692 26.4769 80.1593 25.6948H80.2513V26.868C80.2513 28.2942 79.5842 29.1223 77.997 29.1223C76.7548 29.1223 76.1337 28.5933 75.9267 27.9722H72.2921C72.6602 30.4335 74.7995 31.7678 78.043 31.7678ZM78.02 24.2686C76.6168 24.2686 75.6966 23.1184 75.6966 21.3471C75.6966 19.5529 76.6168 18.4027 78.02 18.4027C79.5842 18.4027 80.4124 19.7369 80.4124 21.3241C80.4124 22.9804 79.6532 24.2686 78.02 24.2686Z" fill="white"/>
<path d="M91.311 25.3962C89.6777 25.3962 88.8266 23.97 88.8266 21.8306C88.8266 19.6913 89.6777 18.2421 91.311 18.2421C92.9442 18.2421 93.8184 19.6913 93.8184 21.8306C93.8184 23.97 92.9442 25.3962 91.311 25.3962ZM91.334 28.0646C95.1296 28.0646 97.6135 25.3732 97.6135 21.8306C97.6135 18.2881 95.1296 15.5967 91.334 15.5967C87.5614 15.5967 85.031 18.2881 85.031 21.8306C85.031 25.3732 87.5614 28.0646 91.334 28.0646Z" fill="white"/>
<path d="M98.709 27.6961H102.459V15.9183H98.709V27.6961ZM98.709 14.285H102.459V11.2485H98.709V14.285Z" fill="white"/>
<path d="M104.085 31.5837H107.835V26.4769H107.881C108.617 27.4661 109.698 28.0642 111.216 28.0642C114.299 28.0642 116.346 25.6258 116.346 21.8072C116.346 18.2647 114.437 15.5732 111.308 15.5732C109.698 15.5732 108.548 16.2864 107.743 17.3445H107.674V15.9183H104.085V31.5837ZM110.25 25.1657C108.64 25.1657 107.72 23.8545 107.72 21.9452C107.72 20.0359 108.548 18.5867 110.181 18.5867C111.791 18.5867 112.55 19.9209 112.55 21.9452C112.55 23.9465 111.676 25.1657 110.25 25.1657Z" fill="white"/>
<path d="M122.451 28.0642C125.533 28.0642 127.81 26.73 127.81 24.1536C127.81 21.1401 125.372 20.611 123.302 20.266C121.806 19.9899 120.472 19.8749 120.472 19.0468C120.472 18.3107 121.185 17.9656 122.105 17.9656C123.141 17.9656 123.854 18.2877 123.992 19.3458H127.442C127.258 17.0225 125.464 15.5732 122.128 15.5732C119.345 15.5732 117.045 16.8614 117.045 19.3458C117.045 22.1063 119.23 22.6583 121.277 23.0034C122.842 23.2794 124.268 23.3945 124.268 24.4526C124.268 25.2117 123.555 25.6258 122.428 25.6258C121.185 25.6258 120.403 25.0507 120.265 23.8775H116.723C116.838 26.4769 119 28.0642 122.451 28.0642Z" fill="white"/>
<path d="M132.904 28.0413C134.537 28.0413 135.572 27.3972 136.423 26.2471H136.492V27.6963H140.081V15.9185H136.331V22.4975C136.331 23.9007 135.549 24.8668 134.261 24.8668C133.065 24.8668 132.49 24.1537 132.49 22.8655V15.9185H128.763V23.6477C128.763 26.2701 130.189 28.0413 132.904 28.0413Z" fill="white"/>
<path d="M141.712 27.6961H145.461V21.0941C145.461 19.6909 146.152 18.7017 147.325 18.7017C148.452 18.7017 148.981 19.4378 148.981 20.703V27.6961H152.731V21.0941C152.731 19.6909 153.398 18.7017 154.594 18.7017C155.721 18.7017 156.25 19.4378 156.25 20.703V27.6961H160V20.0359C160 17.3905 158.666 15.5732 155.997 15.5732C154.479 15.5732 153.214 16.2173 152.294 17.6436H152.248C151.649 16.3784 150.476 15.5732 148.935 15.5732C147.233 15.5732 146.106 16.3784 145.369 17.5976H145.3V15.9183H141.712V27.6961Z" fill="white"/>
<path d="M24.0507 1.84067L20.281 0.830566L17.1042 12.6866L14.2362 1.98289L10.4664 2.993L13.5651 14.5575L5.84682 6.83927L3.08716 9.59892L11.5532 18.065L1.0101 15.24L0 19.0097L11.5196 22.0964C11.3877 21.5275 11.318 20.9348 11.318 20.3258C11.318 16.0149 14.8126 12.5203 19.1235 12.5203C23.4343 12.5203 26.929 16.0149 26.929 20.3258C26.929 20.9309 26.86 21.5199 26.7298 22.0855L37.199 24.8906L38.209 21.1209L26.6436 18.022L37.1874 15.1967L36.1773 11.427L24.6123 14.5258L32.3306 6.80758L29.5709 4.04793L21.2223 12.3965L24.0507 1.84067Z" fill="white"/>
<path d="M26.7196 22.1294C26.3964 23.4958 25.7141 24.7233 24.7778 25.7068L32.3623 33.2914L35.122 30.5317L26.7196 22.1294Z" fill="white"/>
<path d="M24.7012 25.7861C23.7536 26.7539 22.5562 27.4761 21.2134 27.8483L23.9732 38.1482L27.7429 37.138L24.7012 25.7861Z" fill="white"/>
<path d="M21.0725 27.8856C20.4495 28.0457 19.7965 28.1308 19.1236 28.1308C18.4026 28.1308 17.7044 28.0331 17.0416 27.8501L14.2793 38.1593L18.049 39.1694L21.0725 27.8856Z" fill="white"/>
<path d="M16.9082 27.8129C15.5859 27.4222 14.4098 26.6908 13.4816 25.7202L5.87842 33.3234L8.63807 36.083L16.9082 27.8129Z" fill="white"/>
<path d="M13.4182 25.6528C12.5059 24.6761 11.8414 23.465 11.5251 22.1196L1.02173 24.934L2.03182 28.7037L13.4182 25.6528Z" fill="white"/>
</svg>
