<svg width="160" height="32" viewBox="0 0 160 32" fill="none" xmlns="http://www.w3.org/2000/svg">
<path d="M48.0728 24.7255V8.4375H51.1442V21.9333H58.5901V24.7255H48.0728Z" fill="white"/>
<path d="M65.2214 25.0511C64.0735 25.0511 63.0419 24.8184 62.1267 24.353C61.2114 23.8877 60.4901 23.2129 59.9627 22.3287C59.4353 21.4445 59.1716 20.3819 59.1716 19.1409V18.7686C59.1716 17.5276 59.4353 16.465 59.9627 15.5808C60.4901 14.6966 61.2114 14.0218 62.1267 13.5564C63.0419 13.0911 64.0735 12.8584 65.2214 12.8584C66.3693 12.8584 67.4009 13.0911 68.3161 13.5564C69.2313 14.0218 69.9526 14.6966 70.4801 15.5808C71.0075 16.465 71.2712 17.5276 71.2712 18.7686V19.1409C71.2712 20.3819 71.0075 21.4445 70.4801 22.3287C69.9526 23.2129 69.2313 23.8877 68.3161 24.353C67.4009 24.8184 66.3693 25.0511 65.2214 25.0511ZM65.2214 22.445C66.1211 22.445 66.8657 22.158 67.4552 21.5841C68.0446 20.9946 68.3394 20.1569 68.3394 19.0711V18.8384C68.3394 17.7525 68.0446 16.9226 67.4552 16.3486C66.8812 15.7592 66.1366 15.4644 65.2214 15.4644C64.3217 15.4644 63.5771 15.7592 62.9876 16.3486C62.3981 16.9226 62.1034 17.7525 62.1034 18.8384V19.0711C62.1034 20.1569 62.3981 20.9946 62.9876 21.5841C63.5771 22.158 64.3217 22.445 65.2214 22.445Z" fill="white"/>
<path d="M72.3721 19.0013V18.629C72.3721 17.419 72.6125 16.3874 73.0934 15.5342C73.5743 14.6656 74.2103 14.0063 75.0014 13.5564C75.8081 13.0911 76.6845 12.8584 77.6308 12.8584C78.6856 12.8584 79.4845 13.0445 80.0274 13.4168C80.5704 13.7891 80.9659 14.1769 81.2141 14.5802H81.633V13.1841H84.5183V26.7729C84.5183 27.5641 84.2856 28.1923 83.8202 28.6577C83.3548 29.1386 82.7344 29.379 81.9587 29.379H74.2336V26.8195H80.9349C81.3693 26.8195 81.5864 26.5868 81.5864 26.1214V23.1198H81.1676C81.0125 23.368 80.7953 23.6239 80.5161 23.8877C80.2369 24.1358 79.8646 24.3453 79.3992 24.5159C78.9338 24.6865 78.3444 24.7719 77.6308 24.7719C76.6845 24.7719 75.8081 24.5469 75.0014 24.0971C74.2103 23.6317 73.5743 22.9724 73.0934 22.1192C72.6125 21.2506 72.3721 20.2112 72.3721 19.0013ZM78.4685 22.2123C79.3682 22.2123 80.1205 21.9253 80.7255 21.3514C81.3305 20.7774 81.633 19.9708 81.633 18.9315V18.6988C81.633 17.6439 81.3305 16.8373 80.7255 16.2788C80.136 15.7049 79.3837 15.4179 78.4685 15.4179C77.5687 15.4179 76.8164 15.7049 76.2114 16.2788C75.6064 16.8373 75.3039 17.6439 75.3039 18.6988V18.9315C75.3039 19.9708 75.6064 20.7774 76.2114 21.3514C76.8164 21.9253 77.5687 22.2123 78.4685 22.2123Z" fill="white"/>
<path d="M92.213 25.0511C91.0651 25.0511 90.0335 24.8184 89.1182 24.353C88.203 23.8877 87.4817 23.2129 86.9543 22.3287C86.4269 21.4445 86.1631 20.3819 86.1631 19.1409V18.7686C86.1631 17.5276 86.4269 16.465 86.9543 15.5808C87.4817 14.6966 88.203 14.0218 89.1182 13.5564C90.0335 13.0911 91.0651 12.8584 92.213 12.8584C93.3609 12.8584 94.3924 13.0911 95.3077 13.5564C96.2229 14.0218 96.9442 14.6966 97.4717 15.5808C97.9991 16.465 98.2628 17.5276 98.2628 18.7686V19.1409C98.2628 20.3819 97.9991 21.4445 97.4717 22.3287C96.9442 23.2129 96.2229 23.8877 95.3077 24.353C94.3924 24.8184 93.3609 25.0511 92.213 25.0511ZM92.213 22.445C93.1127 22.445 93.8573 22.158 94.4467 21.5841C95.0362 20.9946 95.3309 20.1569 95.3309 19.0711V18.8384C95.3309 17.7525 95.0362 16.9226 94.4467 16.3486C93.8728 15.7592 93.1282 15.4644 92.213 15.4644C91.3132 15.4644 90.5687 15.7592 89.9792 16.3486C89.3897 16.9226 89.095 17.7525 89.095 18.8384V19.0711C89.095 20.1569 89.3897 20.9946 89.9792 21.5841C90.5687 22.158 91.3132 22.445 92.213 22.445Z" fill="white"/>
<path d="M99.922 24.7255V13.1843H102.854V24.7255H99.922ZM101.388 11.8348C100.86 11.8348 100.411 11.6641 100.038 11.3228C99.6816 10.9816 99.5032 10.5317 99.5032 9.9733C99.5032 9.41486 99.6816 8.965 100.038 8.62373C100.411 8.28246 100.86 8.11182 101.388 8.11182C101.931 8.11182 102.381 8.28246 102.737 8.62373C103.094 8.965 103.273 9.41486 103.273 9.9733C103.273 10.5317 103.094 10.9816 102.737 11.3228C102.381 11.6641 101.931 11.8348 101.388 11.8348Z" fill="white"/>
<path d="M105.056 29.379V13.1841H107.941V14.5802H108.36C108.623 14.1304 109.034 13.7348 109.593 13.3935C110.151 13.0368 110.95 12.8584 111.99 12.8584C112.92 12.8584 113.781 13.0911 114.572 13.5564C115.364 14.0063 116 14.6733 116.48 15.5575C116.961 16.4417 117.202 17.5121 117.202 18.7686V19.1409C117.202 20.3974 116.961 21.4677 116.48 22.3519C116 23.2361 115.364 23.9109 114.572 24.3763C113.781 24.8261 112.92 25.0511 111.99 25.0511C111.292 25.0511 110.702 24.9658 110.221 24.7951C109.756 24.64 109.376 24.4383 109.081 24.1901C108.802 23.9264 108.577 23.6627 108.406 23.399H107.987V29.379H105.056ZM111.105 22.4915C112.021 22.4915 112.773 22.2046 113.362 21.6306C113.967 21.0411 114.27 20.188 114.27 19.0711V18.8384C114.27 17.7215 113.967 16.8761 113.362 16.3021C112.757 15.7126 112.005 15.4179 111.105 15.4179C110.206 15.4179 109.453 15.7126 108.848 16.3021C108.243 16.8761 107.941 17.7215 107.941 18.8384V19.0711C107.941 20.188 108.243 21.0411 108.848 21.6306C109.453 22.2046 110.206 22.4915 111.105 22.4915Z" fill="white"/>
<path d="M123.64 25.0511C122.135 25.0511 120.902 24.7253 119.94 24.0738C118.979 23.4223 118.397 22.4915 118.195 21.2816L120.894 20.5835C121.003 21.1265 121.181 21.553 121.43 21.8633C121.693 22.1735 122.011 22.3985 122.384 22.5381C122.771 22.6622 123.19 22.7242 123.64 22.7242C124.323 22.7242 124.827 22.6079 125.152 22.3752C125.478 22.127 125.641 21.8245 125.641 21.4677C125.641 21.1109 125.486 20.8395 125.176 20.6533C124.865 20.4517 124.369 20.2888 123.687 20.1647L123.035 20.0483C122.228 19.8932 121.492 19.6838 120.825 19.4201C120.157 19.1409 119.622 18.7608 119.219 18.2799C118.816 17.7991 118.614 17.1786 118.614 16.4185C118.614 15.2705 119.033 14.3941 119.871 13.7891C120.708 13.1686 121.81 12.8584 123.175 12.8584C124.462 12.8584 125.533 13.1453 126.386 13.7193C127.239 14.2933 127.797 15.0456 128.061 15.9764L125.339 16.814C125.215 16.2246 124.959 15.8057 124.571 15.5575C124.198 15.3093 123.733 15.1852 123.175 15.1852C122.616 15.1852 122.19 15.2861 121.895 15.4877C121.6 15.6739 121.453 15.9376 121.453 16.2788C121.453 16.6511 121.608 16.9304 121.918 17.1165C122.228 17.2871 122.647 17.419 123.175 17.5121L123.826 17.6284C124.695 17.7835 125.478 17.993 126.176 18.2567C126.89 18.5049 127.448 18.8694 127.852 19.3503C128.27 19.8157 128.48 20.4517 128.48 21.2583C128.48 22.4683 128.038 23.4068 127.154 24.0738C126.285 24.7253 125.114 25.0511 123.64 25.0511Z" fill="white"/>
<path d="M134.4 24.912C133.5 24.912 132.709 24.7103 132.026 24.307C131.359 23.8882 130.84 23.3142 130.467 22.5851C130.095 21.856 129.909 21.0184 129.909 20.0721V13.1846H132.841V19.8394C132.841 20.7081 133.05 21.3596 133.469 21.794C133.903 22.2283 134.516 22.4455 135.307 22.4455C136.207 22.4455 136.905 22.1508 137.401 21.5613C137.898 20.9563 138.146 20.1186 138.146 19.0483V13.1846H141.078V24.7258H138.192V23.2134H137.774C137.588 23.6012 137.238 23.9812 136.727 24.3535C136.215 24.7258 135.439 24.912 134.4 24.912Z" fill="white"/>
<path d="M143.293 24.7253V13.1841H146.178V14.4406H146.597C146.799 14.0528 147.133 13.7193 147.598 13.4401C148.063 13.1453 148.676 12.998 149.436 12.998C150.258 12.998 150.918 13.1609 151.414 13.4866C151.91 13.7969 152.29 14.2079 152.554 14.7199H152.973C153.237 14.2235 153.609 13.8124 154.09 13.4866C154.571 13.1609 155.253 12.998 156.137 12.998C156.851 12.998 157.495 13.1531 158.069 13.4634C158.658 13.7581 159.124 14.2157 159.465 14.8362C159.822 15.4412 160 16.209 160 17.1398V24.7253H157.068V17.3492C157.068 16.7132 156.905 16.2401 156.58 15.9298C156.254 15.6041 155.796 15.4412 155.207 15.4412C154.54 15.4412 154.02 15.6583 153.648 16.0927C153.291 16.5115 153.113 17.1165 153.113 17.9076V24.7253H150.181V17.3492C150.181 16.7132 150.018 16.2401 149.692 15.9298C149.366 15.6041 148.909 15.4412 148.319 15.4412C147.652 15.4412 147.132 15.6583 146.76 16.0927C146.403 16.5115 146.225 17.1165 146.225 17.9076V24.7253H143.293Z" fill="white"/>
<path d="M38.781 16C38.781 11.8858 37.1466 7.94005 34.2374 5.03086C31.3282 2.12167 27.3825 0.487305 23.2683 0.487305C19.1541 0.487304 15.2084 2.12167 12.2992 5.03086C9.38999 7.94005 7.75562 11.8858 7.75562 16H12.6034C14.2098 16 15.4626 14.6538 16.051 13.159C16.4373 12.1776 17.0235 11.2757 17.7837 10.5154C19.2383 9.06082 21.2112 8.24364 23.2683 8.24364C25.3254 8.24364 27.2983 9.06082 28.7529 10.5154C30.2075 11.97 31.0246 13.9429 31.0246 16H38.781Z" fill="white"/>
<path d="M29.8444 21.9364C30.624 20.0543 31.0253 18.0371 31.0253 16H38.7808C38.7808 24.5674 31.8355 31.5126 23.2681 31.5126C21.9264 31.5126 20.6244 31.3423 19.3828 31.0221C20.0853 30.8411 20.7758 30.6106 21.449 30.3318C23.3311 29.5522 25.0412 28.4096 26.4817 26.9691C27.9222 25.5286 29.0649 23.8185 29.8444 21.9364Z" fill="white"/>
<path d="M0 16C-2.91433e-07 18.0372 0.401247 20.0544 1.18083 21.9365C1.96042 23.8186 3.10307 25.5287 4.54356 26.9692C5.98404 28.4096 7.69415 29.5523 9.57623 30.3319C11.4583 31.1115 13.4755 31.5127 15.5127 31.5127C17.5498 31.5127 19.567 31.1115 21.4491 30.3319C23.3312 29.5523 25.0413 28.4096 26.4818 26.9692C27.9223 25.5287 29.0649 23.8186 29.8445 21.9365C30.6241 20.0544 31.0254 18.0372 31.0254 16H26.1776C24.5712 16 23.3184 17.3462 22.73 18.8409C22.7133 18.8835 22.6961 18.9259 22.6786 18.9683C22.2888 19.9093 21.7175 20.7644 20.9972 21.4846C20.277 22.2048 19.4219 22.7762 18.4809 23.166C17.5399 23.5558 16.5313 23.7564 15.5127 23.7564C14.4941 23.7564 13.4855 23.5558 12.5445 23.166C11.6034 22.7762 10.7484 22.2048 10.0281 21.4846C9.30787 20.7644 8.73655 19.9093 8.34676 18.9683C7.95696 18.0272 7.75634 17.0186 7.75634 16H0Z" fill="white"/>
<path d="M0.00195312 16C0.00195312 7.43254 6.9472 0.487305 15.5146 0.487305C16.856 0.487305 18.1576 0.657551 19.3991 0.977628C16.7352 1.66387 14.2778 3.05265 12.2995 5.03087C9.39029 7.94003 7.75594 11.8858 7.75594 16H0.00195312Z" fill="white"/>
</svg>
