<svg width="159" height="44" viewBox="0 0 159 44" fill="none" xmlns="http://www.w3.org/2000/svg">
<path fill-rule="evenodd" clip-rule="evenodd" d="M78.4809 4.799C80.0119 3.26817 82.4939 3.26817 84.0249 4.799C85.5558 6.32995 85.5558 8.81206 84.0249 10.343L74.6913 19.6766C72.0115 16.0852 72.3027 10.9774 75.5646 7.71542L78.4809 4.799Z" fill="#282828"/>
<path fill-rule="evenodd" clip-rule="evenodd" d="M91.8239 25.8569C93.3551 27.3878 93.3551 29.87 91.8239 31.4008C90.2938 32.9317 87.8113 32.9317 86.2804 31.4008L76.9468 22.0673C80.5382 19.3876 85.646 19.6786 88.908 22.9406L91.8239 25.8569Z" fill="#282828"/>
<path fill-rule="evenodd" clip-rule="evenodd" d="M70.766 39.2007C69.2352 40.7316 66.753 40.7316 65.2222 39.2007C63.6912 37.6697 63.6912 35.1877 65.2222 33.6567L74.5557 24.3232C77.2354 27.9146 76.9444 33.0224 73.6824 36.2843L70.766 39.2007Z" fill="#282828"/>
<path fill-rule="evenodd" clip-rule="evenodd" d="M57.4229 18.1424C55.8919 16.6114 55.8919 14.1293 57.4229 12.5984C58.9538 11.0675 61.4359 11.0675 62.9668 12.5984L72.3004 21.932C68.709 24.6118 63.6011 24.3206 60.3393 21.0587L57.4229 18.1424Z" fill="#282828"/>
<path fill-rule="evenodd" clip-rule="evenodd" d="M76.3953 38.0578C78.6526 35.548 79.7018 32.3364 79.5426 29.1743L84.0252 33.6568C84.0363 33.668 84.0476 33.6791 84.0588 33.6903V36.8905C84.0588 39.0555 82.3037 40.8106 80.1387 40.8106C78.3802 40.8106 76.8921 39.6528 76.3953 38.0578Z" fill="#282828"/>
<path fill-rule="evenodd" clip-rule="evenodd" d="M58.5658 23.7715C61.0755 26.029 64.2871 27.0782 67.4492 26.919L62.9668 31.4015C62.9555 31.4126 62.9444 31.4239 62.9333 31.435H59.7331C57.5681 31.4351 55.813 29.6799 55.813 27.5149C55.813 25.7565 56.9708 24.2683 58.5658 23.7715Z" fill="#282828"/>
<path fill-rule="evenodd" clip-rule="evenodd" d="M90.681 20.2286C88.1715 17.9711 84.9599 16.9219 81.7979 17.081L86.2803 12.5986C86.2915 12.5874 86.3025 12.5762 86.3137 12.5649H89.514C91.6794 12.5649 93.4345 14.3202 93.4345 16.4852C93.4345 18.2437 92.2762 19.7317 90.681 20.2286Z" fill="#282828"/>
<path fill-rule="evenodd" clip-rule="evenodd" d="M72.852 5.94235C70.5945 8.45214 69.5455 11.6637 69.7045 14.8259L65.2221 10.3434C65.2109 10.3322 65.1997 10.3211 65.1885 10.3099V7.1097C65.1885 4.94467 66.9436 3.18945 69.1086 3.18945C70.8671 3.18945 72.3552 4.34742 72.852 5.94235Z" fill="#282828"/>
<path fill-rule="evenodd" clip-rule="evenodd" d="M69.1088 0C65.1823 0 61.9992 3.18312 61.9992 7.10965V8.49243C59.6369 7.87523 57.0189 8.4921 55.1677 10.3433C52.3912 13.1198 52.3912 17.6214 55.1677 20.3979L56.1455 21.3756C54.0387 22.6096 52.6238 24.897 52.6238 27.5148C52.6238 31.4414 55.8069 34.6245 59.7334 34.6245H61.1161C60.4989 36.9868 61.1158 39.6047 62.967 41.4558C65.7435 44.2323 70.2451 44.2323 73.0216 41.4558L75.9379 38.5395C78.5105 35.9669 79.712 32.5423 79.5425 29.174L84.0251 33.6565C86.8016 36.433 91.3033 36.433 94.0799 33.6565C96.8566 30.88 96.8566 26.3784 94.0799 23.602L93.1026 22.6244C95.2085 21.3904 96.6238 19.103 96.6238 16.4852C96.6238 12.5586 93.4401 9.3755 89.514 9.3755H88.1312C88.7486 7.01313 88.1316 4.39515 86.2804 2.54396C83.504 -0.232543 79.0024 -0.232543 76.2259 2.54396L73.3095 5.46034C70.7369 8.03298 69.5353 11.4575 69.7049 14.8258L65.2223 10.3433C65.2111 10.3321 65.2 10.321 65.1887 10.3099V7.10965C65.1887 4.94462 66.9438 3.18952 69.1088 3.18952C70.8674 3.18952 72.3554 4.34738 72.8522 5.94231C72.9995 5.7786 73.152 5.61787 73.3095 5.46034L75.2481 3.52168C74.0141 1.41489 71.7267 0 69.1088 0ZM86.3138 12.565C86.3027 12.5762 86.2916 12.5874 86.2804 12.5986L81.798 17.081C84.9601 16.9219 88.1716 17.971 90.6812 20.2286C92.2763 19.7317 93.4346 18.2436 93.4346 16.4852C93.4346 14.3201 91.6795 12.565 89.514 12.565H86.3138ZM62.9334 31.435C62.9446 31.4237 62.9557 31.4125 62.967 31.4013L67.4494 26.9188C64.2873 27.078 61.0758 26.0288 58.5661 23.7714C56.9712 24.2683 55.8132 25.7563 55.8132 27.5148C55.8132 29.6799 57.5684 31.435 59.7334 31.435H62.9334ZM80.1386 44C77.5206 44 75.2333 42.585 73.9993 40.4782L75.9379 38.5395C76.0955 38.382 76.2478 38.2213 76.3951 38.0576C76.892 39.6525 78.38 40.8105 80.1386 40.8105C82.3037 40.8105 84.0588 39.0554 84.0588 36.8903V33.6901C84.9775 34.5968 86.0817 35.2026 87.2483 35.5074V36.8903C87.2483 40.8169 84.0652 44 80.1386 44ZM84.0251 4.79923C82.4942 3.2684 80.0121 3.2684 78.4811 4.79923L75.5648 7.7156C72.3029 10.9776 72.0118 16.0854 74.6915 19.6768L84.0251 10.3432C85.5561 8.81224 85.5561 6.33017 84.0251 4.79923ZM91.824 31.4012C93.3552 29.8703 93.3552 27.3882 91.824 25.8572L88.908 22.9409C85.6461 19.679 80.5382 19.3879 76.9468 22.0676L86.2804 31.4012C87.8113 32.9322 90.294 32.9322 91.824 31.4012ZM70.7662 39.2006C69.2353 40.7315 66.7532 40.7315 65.2222 39.2006C63.6914 37.6696 63.6914 35.1875 65.2222 33.6566L74.5558 24.323C77.2356 27.9144 76.9445 33.0223 73.6826 36.2842L70.7662 39.2006ZM57.423 12.5986C55.8922 14.1295 55.8922 16.6116 57.423 18.1425L60.3394 21.0589C63.6014 24.3208 68.7092 24.6119 72.3006 21.9321L62.967 12.5986C61.436 11.0677 58.954 11.0677 57.423 12.5986Z" fill="white"/>
<path d="M0 14.377H3.4866V25.2112H9.4749V28.1462H0V14.377Z" fill="white"/>
<path d="M15.8054 28.4417C14.6366 28.4417 13.6122 28.2316 12.7324 27.8114C11.8525 27.378 11.1696 26.787 10.6837 26.0385C10.211 25.2768 9.97461 24.4036 9.97461 23.4186C9.97461 22.4337 10.211 21.5669 10.6837 20.8185C11.1696 20.0567 11.8525 19.4658 12.7324 19.0456C13.6122 18.6122 14.6366 18.3955 15.8054 18.3955C16.9742 18.3955 17.9984 18.6122 18.8783 19.0456C19.7582 19.4658 20.4345 20.0567 20.9072 20.8185C21.3931 21.5669 21.6361 22.4337 21.6361 23.4186C21.6361 24.4036 21.3931 25.2768 20.9072 26.0385C20.4345 26.787 19.7582 27.378 18.8783 27.8114C17.9984 28.2316 16.9742 28.4417 15.8054 28.4417ZM15.8054 25.743C16.5014 25.743 17.0529 25.5395 17.46 25.1324C17.8803 24.7121 18.0903 24.1409 18.0903 23.4186C18.0903 22.6963 17.8803 22.1316 17.46 21.7246C17.0529 21.3043 16.5014 21.0942 15.8054 21.0942C15.1093 21.0942 14.5512 21.3043 14.131 21.7246C13.7239 22.1316 13.5203 22.6963 13.5203 23.4186C13.5203 24.1409 13.7239 24.7121 14.131 25.1324C14.5512 25.5395 15.1093 25.743 15.8054 25.743Z" fill="white"/>
<path d="M28.1483 32.6769C27.5179 32.6769 26.881 32.6178 26.2375 32.4997C25.6072 32.3814 25.0621 32.2239 24.6026 32.0268V29.6236C25.64 30.0701 26.8219 30.2934 28.1483 30.2934C29.1069 30.2934 29.7964 30.0963 30.2166 29.7024C30.65 29.3085 30.8667 28.7306 30.8667 27.9689V27.3977C30.4858 27.726 30.013 27.9821 29.4483 28.1659C28.8968 28.3498 28.3058 28.4417 27.6755 28.4417C26.6775 28.4417 25.7976 28.2316 25.0359 27.8114C24.2743 27.3911 23.6767 26.8001 23.2434 26.0385C22.8231 25.2768 22.613 24.4036 22.613 23.4186C22.613 22.4206 22.8231 21.5407 23.2434 20.7791C23.6636 20.0174 24.2545 19.4329 25.0162 19.0258C25.7778 18.6057 26.6512 18.3955 27.6361 18.3955C28.9888 18.3955 30.1049 18.8092 30.9848 19.6365V18.6909H34.3336V27.4962C34.3336 29.1377 33.8279 30.4116 32.8168 31.3177C31.8188 32.2239 30.2626 32.6769 28.1483 32.6769ZM28.5422 25.7627C29.0807 25.7627 29.56 25.6249 29.9802 25.3491C30.4005 25.0733 30.6959 24.7056 30.8667 24.2459V22.5913C30.6828 22.1316 30.3807 21.7705 29.9605 21.5078C29.5402 21.2321 29.0675 21.0942 28.5422 21.0942C27.8331 21.0942 27.2618 21.3043 26.8285 21.7246C26.3951 22.1316 26.1784 22.6897 26.1784 23.3989C26.1784 24.1212 26.3951 24.699 26.8285 25.1324C27.2618 25.5526 27.8331 25.7627 28.5422 25.7627Z" fill="white"/>
<path d="M41.0439 28.4417C39.8751 28.4417 38.8509 28.2316 37.971 27.8114C37.0911 27.378 36.4082 26.787 35.9223 26.0385C35.4495 25.2768 35.2131 24.4036 35.2131 23.4186C35.2131 22.4337 35.4495 21.5669 35.9223 20.8185C36.4082 20.0567 37.0911 19.4658 37.971 19.0456C38.8509 18.6122 39.8751 18.3955 41.0439 18.3955C42.2127 18.3955 43.237 18.6122 44.1168 19.0456C44.9967 19.4658 45.673 20.0567 46.1458 20.8185C46.6317 21.5669 46.8747 22.4337 46.8747 23.4186C46.8747 24.4036 46.6317 25.2768 46.1458 26.0385C45.673 26.787 44.9967 27.378 44.1168 27.8114C43.237 28.2316 42.2127 28.4417 41.0439 28.4417ZM41.0439 25.743C41.7399 25.743 42.2915 25.5395 42.6986 25.1324C43.1188 24.7121 43.329 24.1409 43.329 23.4186C43.329 22.6963 43.1188 22.1316 42.6986 21.7246C42.2915 21.3043 41.7399 21.0942 41.0439 21.0942C40.3479 21.0942 39.7897 21.3043 39.3696 21.7246C38.9624 22.1316 38.7589 22.6963 38.7589 23.4186C38.7589 24.1409 38.9624 24.7121 39.3696 25.1324C39.7897 25.5395 40.3479 25.743 41.0439 25.743Z" fill="white"/>
<path d="M102.481 14.377H105.968V28.1462H102.481V14.377Z" fill="white"/>
<path d="M107.733 18.6909H111.082V19.6365C111.962 18.8092 113.078 18.3955 114.43 18.3955C115.416 18.3955 116.289 18.6057 117.05 19.0258C117.813 19.4329 118.403 20.0174 118.823 20.7791C119.243 21.5276 119.454 22.4009 119.454 23.3989C119.454 24.3838 119.243 25.2637 118.823 26.0385C118.403 26.8001 117.813 27.3911 117.05 27.8114C116.303 28.2316 115.429 28.4417 114.43 28.4417C113.801 28.4417 113.196 28.3432 112.619 28.1462C112.054 27.9624 111.581 27.7063 111.2 27.378V32.4602H107.733V18.6909ZM113.525 25.743C114.234 25.743 114.806 25.533 115.238 25.1127C115.672 24.6925 115.889 24.1212 115.889 23.3989C115.889 22.6766 115.672 22.112 115.238 21.7048C114.806 21.2846 114.234 21.0745 113.525 21.0745C113 21.0745 112.526 21.2124 112.106 21.4882C111.686 21.7508 111.385 22.112 111.2 22.5716V24.2459C111.385 24.7056 111.686 25.0733 112.106 25.3491C112.526 25.6117 113 25.743 113.525 25.743Z" fill="white"/>
<path d="M124.622 28.4417C123.861 28.4417 123.067 28.363 122.24 28.2053C121.412 28.0609 120.755 27.8508 120.269 27.575V25.0339C120.808 25.3491 121.451 25.6117 122.2 25.8219C122.961 26.0188 123.657 26.1173 124.288 26.1173C124.747 26.1173 125.082 26.0844 125.292 26.0188C125.503 25.9532 125.608 25.8219 125.608 25.6249C125.608 25.4672 125.536 25.3424 125.391 25.2506C125.26 25.1455 125.01 25.0404 124.642 24.9354C124.288 24.8172 123.874 24.6925 123.401 24.5611C122.6 24.3247 121.97 24.0818 121.51 23.8322C121.05 23.5827 120.71 23.2675 120.486 22.8867C120.263 22.5059 120.151 22.0266 120.151 21.4488C120.151 20.4244 120.552 19.6628 121.353 19.1637C122.167 18.6515 123.277 18.3955 124.682 18.3955C125.365 18.3955 126.081 18.4678 126.829 18.6122C127.591 18.7567 128.161 18.9471 128.543 19.1835V21.6852C128.149 21.4225 127.623 21.2058 126.967 21.0351C126.323 20.8643 125.719 20.7791 125.154 20.7791C124.708 20.7791 124.36 20.825 124.111 20.9169C123.861 20.9957 123.737 21.1401 123.737 21.3503C123.737 21.5473 123.861 21.6983 124.111 21.8033C124.36 21.9084 124.807 22.0397 125.45 22.1973C125.87 22.3024 126.048 22.3483 125.981 22.3352C126.822 22.5584 127.472 22.808 127.932 23.0838C128.392 23.3595 128.713 23.6878 128.897 24.0686C129.095 24.4363 129.193 24.9091 129.193 25.487C129.193 26.3931 128.799 27.1153 128.011 27.6538C127.236 28.1791 126.106 28.4417 124.622 28.4417Z" fill="white"/>
<path d="M134.369 28.4422C133.069 28.4422 132.091 28.081 131.434 27.3588C130.791 26.6365 130.469 25.6845 130.469 24.5025V18.6914H133.936V24.1085C133.936 25.1985 134.428 25.7435 135.414 25.7435C135.86 25.7435 136.267 25.6385 136.635 25.4283C137.002 25.2182 137.304 24.9096 137.54 24.5025V18.6914H141.008V28.1467H137.66V27.1224C137.252 27.5557 136.759 27.884 136.181 28.1073C135.604 28.3306 135 28.4422 134.369 28.4422Z" fill="white"/>
<path d="M142.782 18.6909H145.994V19.7153C146.388 19.2951 146.841 18.9733 147.353 18.7501C147.865 18.5137 148.41 18.3955 148.988 18.3955C149.697 18.3955 150.262 18.5005 150.682 18.7107C151.116 18.9208 151.463 19.236 151.726 19.6562C152.119 19.2622 152.599 18.9536 153.164 18.7304C153.729 18.5071 154.3 18.3955 154.877 18.3955C156.125 18.3955 157.012 18.7173 157.537 19.3608C158.062 19.9911 158.325 20.9037 158.325 22.0988V28.1462H155.015V22.5913C155.015 22.066 154.917 21.6852 154.72 21.4488C154.523 21.2124 154.194 21.0942 153.736 21.0942C153.144 21.0942 152.664 21.3043 152.297 21.7246C152.31 21.9477 152.317 22.2893 152.317 22.7488V28.1462H149.008V22.4534C149.008 21.9675 148.923 21.6194 148.752 21.4094C148.581 21.1993 148.278 21.0942 147.846 21.0942C147.175 21.0942 146.598 21.4684 146.112 22.217V28.1462H142.782V18.6909Z" fill="white"/>
</svg>
