<svg width="140" height="145" viewBox="0 0 140 145" fill="none" xmlns="http://www.w3.org/2000/svg">
<path d="M64.9356 123.548C64.9086 123.548 64.8816 123.548 64.8546 123.548C30.1729 119.036 15.0199 94.2195 12.3864 72.5208C10.8468 59.8871 13.1967 46.9253 18.9905 35.9734C25.2705 24.1601 35.1158 15.3411 47.3922 10.501C47.8379 10.3369 48.2836 10.542 48.4456 10.9522C48.6077 11.4034 48.4051 11.8546 47.9999 12.0187C36.0477 16.7358 26.5265 25.3086 20.4491 36.7527C14.7768 47.4175 12.5079 60.0102 13.9665 72.3157C16.519 93.3991 31.3073 117.518 65.0572 121.948C65.5029 121.989 65.827 122.399 65.746 122.85C65.7054 123.261 65.3408 123.548 64.9356 123.548Z" fill="white"/>
<path d="M35.2373 18.1711C35.0347 18.2122 40.6259 13.6591 48.9722 16.6535C49.661 16.8996 50.3092 17.2277 50.917 17.5969C52.416 18.3762 55.8599 20.3861 59.2227 19.4017C59.1012 19.4427 55.4548 21.2475 51.2006 22.1499C46.7843 22.9703 41.7603 22.9703 35.2373 18.1711Z" fill="white"/>
<path d="M29.5246 23.0113C29.7272 22.9293 33.6978 19.1556 37.0201 10.3777C37.3037 9.5983 37.5468 8.81896 37.7899 8.08062C38.2355 6.35785 40.3424 1.64074 45.4879 0C45.65 0 39.0459 1.1075 33.9814 5.20934C28.8763 9.10608 25.2704 16.0382 29.5246 23.0113Z" fill="white"/>
<path d="M43.8672 10.6239C43.9482 10.3778 44.0293 10.1317 44.1103 9.88554C44.5155 8.61397 45.7715 6.15287 48.324 5.45556C48.3645 5.45556 45.2042 4.67621 42.125 7.21935C41.1931 8.03972 40.5449 8.94212 40.0992 9.88554C39.451 11.3212 38.8027 13.9053 39.9371 15.2179C39.9371 15.1769 42.7733 13.7003 43.8672 10.6239Z" fill="white"/>
<path d="M32.2391 23.3807C32.4822 23.408 32.7253 23.4627 32.9684 23.5447C34.2244 23.7498 36.6148 24.078 38.0329 22.8064C37.9924 22.8064 37.5467 25.2675 34.8321 26.334C33.9408 26.7031 33.0494 26.8262 32.1176 26.8262C30.74 26.7852 28.1875 26.7442 27.0531 25.3906C27.0125 25.3906 29.1194 22.9294 32.2391 23.3807Z" fill="white"/>
<path d="M19.7197 36.2195C19.5577 36.3836 22.4748 30.1078 31.0642 29.6566C31.7935 29.6156 32.4823 29.6566 33.1711 29.7386C34.8727 29.9027 38.8028 30.3949 40.9906 28.385C40.9096 28.467 38.9243 31.2973 35.7641 33.6354C32.4418 35.9734 27.904 37.8603 19.7197 36.2195Z" fill="white"/>
<path d="M16.7215 42.7823C16.843 42.6182 18.9499 37.655 17.5723 28.672C17.4508 27.8516 17.2887 27.1133 17.1267 26.3339C16.681 24.6522 16.1543 19.6889 19.6387 16.3254C19.7602 16.2024 14.8578 19.6889 12.3863 25.2674C9.79326 30.7229 9.67171 38.3523 16.7215 42.7823Z" fill="white"/>
<path d="M23.6901 26.2519C23.6361 26.0058 23.5686 25.7597 23.4875 25.5136C23.2039 24.283 23.0013 21.5758 24.784 20.0171C24.8245 20.0171 21.8264 20.5093 20.4893 23.9138C20.0437 24.9803 19.9626 26.0468 20.0437 27.0312C20.2057 28.5489 20.854 31.0921 22.5151 31.7894C22.5151 31.7483 24.2978 29.3693 23.6901 26.2519Z" fill="white"/>
<path d="M19.3956 42.0029C19.3956 42.0029 19.4091 42.0029 19.4361 42.0029C19.6522 41.9482 19.8953 41.9072 20.1654 41.8798C21.4214 41.5517 23.7714 40.8954 24.4196 39.2136C24.4196 39.2136 25.1894 41.5517 23.1231 43.6026C22.4749 44.2589 21.705 44.7511 20.8542 45.1203C19.5577 45.6125 17.1267 46.638 15.4656 45.8996C15.4656 45.9406 16.3164 42.8643 19.3956 42.0029Z" fill="white"/>
<path d="M13.0346 58.6153C12.9536 58.8204 13.2372 51.9293 21.0973 48.0326C21.7455 47.7044 22.4343 47.4583 23.1231 47.2532C24.7842 46.72 28.6738 45.5715 29.7677 42.9463C29.7272 43.0693 29.241 46.2688 27.2557 49.6323C25.1489 53.0368 21.5835 56.6054 13.0346 58.6153Z" fill="white"/>
<path d="M12.7508 65.8346C12.7914 65.6295 12.9534 60.2561 7.88892 52.7498C7.44324 52.0935 6.95705 51.4782 6.47086 50.8629C5.33641 49.5503 2.7839 45.2844 4.48558 40.8955C4.56661 40.7314 1.52791 45.8177 1.48739 51.9294C1.32533 57.9181 4.20196 64.8502 12.7508 65.8346Z" fill="white"/>
<path d="M12.6698 48.0732C12.6698 48.0732 12.6698 48.0595 12.6698 48.0321C12.5078 47.8407 12.3457 47.6493 12.1836 47.4579C11.3733 46.4734 10.0363 44.1764 10.9681 42.0435C11.0087 42.0435 8.41564 43.6842 8.61822 47.2938C8.69925 48.4013 9.02338 49.4268 9.55009 50.2471C10.3199 51.5597 12.0621 53.5286 13.8853 53.4876C13.8853 53.4466 14.5741 50.5753 12.6698 48.0732Z" fill="white"/>
<path d="M15.0199 63.9886C15.0199 63.9886 15.0334 63.9886 15.0604 63.9886C15.2495 63.8245 15.4656 63.6741 15.7087 63.5374C16.8026 62.717 18.7879 61.1173 18.7879 59.3125C18.7879 59.3535 20.4491 61.0763 19.2741 63.8245C18.9095 64.6859 18.3422 65.4653 17.6535 66.1626C16.6001 67.188 14.6148 69.1569 12.751 69.239C12.751 69.239 12.3864 66.0805 15.0199 63.9886Z" fill="white"/>
<path d="M15.1818 81.9543C15.1818 82.1594 12.8724 75.6785 18.9903 68.7054C19.517 68.1311 20.0842 67.5979 20.692 67.1467C22.0695 65.9161 25.3918 63.2089 25.4323 60.4197C25.4323 60.5017 26.2426 63.6191 25.5944 67.5159C24.8651 71.4946 22.7178 76.3348 15.1818 81.9543Z" fill="white"/>
<path d="M17.6128 88.7229C17.5723 88.5178 15.7086 83.4725 7.97 78.7964C7.32174 78.3862 6.63297 78.0171 5.90369 77.6889C4.32356 76.9506 0.23144 74.2024 0.190924 69.4032C0.23144 69.2391 -0.781458 75.2278 1.48744 80.8473C3.59427 86.4258 8.94238 91.6352 17.6128 88.7229Z" fill="white"/>
<path d="M10.8466 72.3978C10.8736 72.3978 10.8871 72.3978 10.8871 72.3978C10.8601 72.3978 10.8466 72.3978 10.8466 72.3978C10.6305 72.2884 10.4009 72.1927 10.1578 72.1106C8.98282 71.5364 6.79496 70.0187 6.91651 67.6807C6.91651 67.6396 5.09328 70.2648 6.67341 73.5053C7.1596 74.4897 7.84838 75.228 8.6587 75.7613C9.91469 76.6227 12.3457 77.6891 14.0878 76.8278C14.0878 76.8278 13.6827 73.8744 10.8466 72.3978Z" fill="white"/>
<path d="M19.1523 86.0158C19.1523 86.0158 19.1523 86.0021 19.1523 85.9748C19.2874 85.756 19.436 85.5236 19.598 85.2774C20.3678 84.0469 21.7048 81.6678 21.0161 80.0271C21.0161 80.0681 23.285 80.9295 23.1634 83.9649C23.1229 84.9083 22.8798 85.9338 22.4746 86.8772C21.8264 88.3128 20.6514 90.979 18.9092 91.8814C18.8687 91.9224 17.3696 89.1332 19.1523 86.0158Z" fill="white"/>
<path d="M26.2022 102.669C26.2832 102.874 21.4618 97.7875 24.7436 88.5993C25.0273 87.861 25.3919 87.1227 25.7971 86.3844C26.6479 84.6616 28.8763 80.6828 27.8634 78.0986C27.9039 78.2217 29.8081 80.6828 30.659 84.5795C31.4693 88.5583 31.2262 94.0138 26.2022 102.669Z" fill="white"/>
<path d="M31.3074 107.961C31.1858 107.796 27.2558 103.859 17.9776 102.956C17.1673 102.874 16.3569 102.833 15.5061 102.833C13.6829 102.874 8.6589 102.054 6.79517 97.6239C6.79517 97.4598 8.05116 103.449 12.4674 107.755C16.6811 112.021 24.0145 114.606 31.3074 107.961Z" fill="white"/>
<path d="M18.261 95.6959C17.9909 95.6685 17.7207 95.6685 17.4506 95.6959C16.1136 95.6959 13.4396 95.2447 12.6697 93.0297C12.6697 92.9887 11.8594 96.2291 14.6145 98.5672C15.4654 99.2645 16.4377 99.6747 17.4506 99.7977C18.9902 100.044 21.7453 99.9618 23.1229 98.3621C23.0824 98.3621 21.5428 95.7779 18.261 95.6959Z" fill="white"/>
<path d="M31.6719 104.72C31.6719 104.72 31.6719 104.706 31.6719 104.679C31.726 104.405 31.78 104.118 31.834 103.817C32.0771 102.341 32.4012 99.5105 31.0642 98.28C31.1047 98.28 33.6167 98.0749 34.7512 100.987C35.1158 101.89 35.2779 102.956 35.2779 104.023C35.2779 105.663 35.2779 108.74 33.9003 110.38C33.9003 110.38 31.2263 108.453 31.6719 104.72Z" fill="white"/>
<path d="M46.0146 117.313C46.1766 117.477 38.9243 114.811 38.276 104.638C38.2355 103.777 38.276 102.956 38.357 102.095C38.4786 100.085 38.9648 95.3268 36.939 93.3989C37.0605 93.481 39.8561 94.8756 42.3681 98.1571C44.8396 101.562 47.068 106.812 46.0146 117.313Z" fill="white"/>
<path d="M53.8341 120.061C53.6316 119.979 47.5542 118.01 37.8303 121.291C36.9795 121.578 36.1692 121.906 35.3588 122.276C33.5356 123.137 28.1875 124.614 24.46 121.209C24.379 121.045 28.1065 126.213 34.508 128.305C40.6664 130.561 49.4584 129.741 53.8341 120.061Z" fill="white"/>
<path d="M34.9537 114.236C34.9537 114.236 34.9402 114.236 34.9132 114.236C34.6431 114.346 34.3865 114.482 34.1434 114.646C32.8063 115.221 29.9702 116 28.2686 114.236C28.2686 114.195 28.8358 117.641 32.5633 118.625C33.6977 118.912 34.8727 118.83 35.9261 118.543C37.5467 118.051 40.2613 116.779 40.9501 114.646C40.9096 114.605 38.195 112.883 34.9537 114.236Z" fill="white"/>
<path d="M52.6591 116.82C52.6321 116.82 52.6186 116.82 52.6186 116.82C52.6186 116.82 52.6186 116.807 52.6186 116.779C52.5376 116.506 52.4565 116.205 52.3755 115.877C51.8488 114.318 50.8764 111.488 48.9316 110.914C48.9722 110.955 51.4436 109.601 54.0367 111.816C54.847 112.554 55.5358 113.457 56.0625 114.482C56.8323 116.041 58.3719 118.994 57.7641 121.209C57.7641 121.25 53.9556 120.594 52.6591 116.82Z" fill="white"/>
<path d="M64.2467 133.679C64.2467 133.679 64.2332 133.692 64.2062 133.72C63.8551 134.13 63.4769 134.54 63.0718 134.95C61.127 137.165 57.6426 141.39 58.615 145C58.5745 144.918 54.1988 142.252 55.2927 136.058C55.6168 134.089 56.4271 132.161 57.5211 130.356C59.1822 127.69 62.3425 122.481 66.3131 121.455C66.3536 121.414 68.8656 128.059 64.2467 133.679Z" fill="white"/>
<path d="M52.0109 10.0904C52.0109 10.0904 52.0244 10.0904 52.0514 10.0904C52.3485 10.1177 52.6592 10.1588 52.9833 10.2134C54.685 10.3775 58.0478 10.6236 60.9244 9.27002C60.8839 9.31104 58.8581 11.8132 54.4824 13.1257C53.0643 13.5359 51.7678 13.782 50.5523 13.8231C48.6886 13.9051 45.4068 14.0692 44.3129 12.7566C44.2723 12.7566 47.6757 9.80326 52.0109 10.0904Z" fill="white"/>
<path d="M75.0644 123.548C74.6592 123.548 74.2946 123.261 74.2541 122.85C74.2136 122.399 74.4972 121.989 74.9429 121.948C108.693 117.518 123.481 93.3991 126.034 72.3157C127.492 60.0102 125.223 47.4175 119.551 36.7527C113.474 25.3086 103.952 16.7358 92.0001 12.0187C91.5949 11.8546 91.3924 11.4034 91.5544 10.9522C91.7165 10.542 92.1622 10.3369 92.6078 10.501C104.925 15.3411 114.73 24.1601 121.01 35.9734C126.803 46.9253 129.153 59.8871 127.614 72.5208C124.98 94.2195 109.827 119.036 75.1454 123.548C75.1184 123.548 75.0914 123.548 75.0644 123.548Z" fill="white"/>
<path d="M104.763 18.1711C104.965 18.2122 99.3742 13.6591 91.0279 16.6535C90.3391 16.8996 89.6909 17.2277 89.0831 17.5969C87.584 18.3762 84.1402 20.3861 80.7773 19.4017C80.8989 19.4427 84.5453 21.2475 88.7995 22.1499C93.2158 22.9703 98.2397 22.9703 104.763 18.1711Z" fill="white"/>
<path d="M110.475 23.0113C110.273 22.9293 106.302 19.1556 102.98 10.3777C102.696 9.5983 102.453 8.81896 102.21 8.08062C101.764 6.35785 99.6577 1.64074 94.5526 0C94.3501 0 100.954 1.1075 106.019 5.20934C111.124 9.10608 114.73 16.0382 110.475 23.0113Z" fill="white"/>
<path d="M96.1329 10.6239C96.0519 10.3778 95.9709 10.1317 95.8898 9.88554C95.5252 8.61397 94.2287 6.15287 91.6762 5.45556C91.6357 5.45556 94.7959 4.67621 97.8751 7.21935C98.807 8.03972 99.4552 8.94212 99.9009 9.88554C100.549 11.3212 101.197 13.9053 100.063 15.2179C100.063 15.1769 97.2269 13.7003 96.1329 10.6239Z" fill="white"/>
<path d="M107.761 23.3807C107.518 23.408 107.275 23.4627 107.032 23.5447C105.776 23.7498 103.385 24.078 101.967 22.8064C102.008 22.8064 102.453 25.2675 105.168 26.334C106.059 26.7031 106.951 26.8262 107.882 26.8262C109.26 26.7852 111.812 26.7442 112.947 25.3906C112.987 25.3906 110.881 22.9294 107.761 23.3807Z" fill="white"/>
<path d="M120.28 36.2195C120.442 36.3836 117.525 30.1078 108.936 29.6566C108.207 29.6156 107.518 29.6566 106.829 29.7386C105.127 29.9027 101.197 30.3949 99.0095 28.385C99.0906 28.467 101.076 31.2973 104.236 33.6354C107.558 35.9734 112.096 37.8603 120.28 36.2195Z" fill="white"/>
<path d="M123.279 42.7823C123.157 42.6182 121.05 37.655 122.428 28.672C122.549 27.8516 122.711 27.1133 122.873 26.3339C123.319 24.6522 123.846 19.6889 120.361 16.3254C120.24 16.2024 125.142 19.6889 127.614 25.2674C130.207 30.7229 130.328 38.3523 123.279 42.7823Z" fill="white"/>
<path d="M116.31 26.2519C116.364 26.0058 116.431 25.7597 116.512 25.5136C116.796 24.283 116.998 21.5758 115.216 20.0171C115.175 20.0171 118.173 20.5093 119.551 23.9138C119.956 24.9803 120.037 26.0468 119.956 27.0312C119.794 28.5489 119.146 31.0921 117.485 31.7894C117.485 31.7483 115.702 29.3693 116.31 26.2519Z" fill="white"/>
<path d="M120.605 42.0029C120.605 42.0029 120.591 42.0029 120.564 42.0029C120.348 41.9482 120.105 41.9072 119.835 41.8798C118.579 41.5517 116.229 40.8954 115.581 39.2136C115.581 39.2136 114.811 41.5517 116.877 43.6026C117.525 44.2589 118.295 44.7511 119.146 45.1203C120.442 45.6125 122.873 46.638 124.535 45.8996C124.535 45.9406 123.684 42.8643 120.605 42.0029Z" fill="white"/>
<path d="M126.966 58.6153C127.047 58.8204 126.763 51.9293 118.903 48.0326C118.255 47.7044 117.566 47.4583 116.877 47.2532C115.216 46.72 111.326 45.5715 110.232 42.9463C110.273 43.0693 110.759 46.2688 112.744 49.6323C114.851 53.0368 118.417 56.6054 126.966 58.6153Z" fill="white"/>
<path d="M127.249 65.8346C127.209 65.6295 127.047 60.2561 132.111 52.7498C132.557 52.0935 133.043 51.4782 133.529 50.8629C134.664 49.5503 137.216 45.2844 135.514 40.8955C135.433 40.7314 138.472 45.8177 138.513 51.9294C138.675 57.9181 135.798 64.8502 127.249 65.8346Z" fill="white"/>
<path d="M127.33 48.0732C127.33 48.0732 127.33 48.0595 127.33 48.0321C127.492 47.8407 127.668 47.6493 127.857 47.4579C128.667 46.4734 129.964 44.1764 129.032 42.0435C128.991 42.0435 131.584 43.6842 131.382 47.2938C131.301 48.4013 130.977 49.4268 130.45 50.2471C129.68 51.5597 127.938 53.5286 126.115 53.4876C126.115 53.4466 125.426 50.5753 127.33 48.0732Z" fill="white"/>
<path d="M124.98 63.9886C124.98 63.9886 124.967 63.9886 124.94 63.9886C124.751 63.8245 124.535 63.6741 124.291 63.5374C123.197 62.717 121.212 61.1173 121.212 59.3125C121.212 59.3535 119.551 61.0763 120.726 63.8245C121.091 64.6859 121.658 65.4653 122.347 66.1626C123.4 67.188 125.385 69.1569 127.249 69.239C127.249 69.239 127.614 66.0805 124.98 63.9886Z" fill="white"/>
<path d="M124.818 81.9543C124.818 82.1594 127.127 75.6785 121.01 68.7054C120.483 68.1311 119.916 67.5979 119.308 67.1467C117.93 65.9161 114.608 63.2089 114.608 60.4197C114.568 60.5017 113.757 63.6191 114.405 67.5159C115.135 71.4946 117.282 76.3348 124.818 81.9543Z" fill="white"/>
<path d="M122.387 88.7229C122.428 88.5178 124.291 83.4725 132.03 78.7964C132.678 78.3862 133.367 78.0171 134.096 77.6889C135.717 76.9506 139.769 74.2024 139.809 69.4032C139.769 69.2391 140.781 75.2278 138.513 80.8473C136.406 86.4258 131.058 91.6352 122.387 88.7229Z" fill="white"/>
<path d="M129.153 72.3978C129.369 72.2884 129.599 72.1927 129.842 72.1106C131.017 71.5364 133.205 70.0187 133.083 67.6807C133.083 67.6396 134.907 70.2648 133.327 73.5053C132.84 74.4897 132.152 75.228 131.341 75.7613C130.085 76.6227 127.654 77.6891 125.912 76.8278C125.912 76.8278 126.317 73.8744 129.153 72.3978Z" fill="white"/>
<path d="M120.848 86.0158C120.848 86.0158 120.848 86.0021 120.848 85.9748C120.713 85.756 120.564 85.5236 120.402 85.2774C119.632 84.0469 118.295 81.6678 118.984 80.0271C118.984 80.0681 116.715 80.9295 116.837 83.9649C116.877 84.9083 117.12 85.9338 117.525 86.8772C118.174 88.3128 119.348 90.979 121.091 91.8814C121.131 91.9224 122.63 89.1332 120.848 86.0158Z" fill="white"/>
<path d="M113.798 102.669C113.717 102.874 118.538 97.7875 115.256 88.5993C114.973 87.861 114.608 87.1227 114.203 86.3844C113.352 84.6616 111.124 80.6828 112.177 78.0986C112.096 78.2217 110.192 80.6828 109.341 84.5795C108.531 88.5583 108.774 94.0138 113.798 102.669Z" fill="white"/>
<path d="M108.693 107.961C108.814 107.796 112.744 103.859 122.023 102.956C122.833 102.874 123.684 102.833 124.494 102.833C126.317 102.874 131.341 102.054 133.205 97.6239C133.205 97.4598 131.949 103.449 127.533 107.755C123.319 112.021 115.986 114.606 108.693 107.961Z" fill="white"/>
<path d="M121.739 95.6959C122.009 95.6685 122.279 95.6685 122.549 95.6959C123.886 95.6959 126.56 95.2447 127.33 93.0297C127.33 92.9887 128.14 96.2291 125.385 98.5672C124.534 99.2645 123.562 99.6747 122.549 99.7977C121.01 100.044 118.254 99.9618 116.877 98.3621C116.917 98.3621 118.457 95.7779 121.739 95.6959Z" fill="white"/>
<path d="M108.328 104.72C108.328 104.72 108.328 104.706 108.328 104.679C108.274 104.405 108.22 104.118 108.166 103.817C107.923 102.341 107.599 99.5105 108.936 98.28C108.895 98.28 106.383 98.0749 105.249 100.987C104.884 101.89 104.722 102.956 104.722 104.023C104.722 105.663 104.722 108.74 106.1 110.38C106.1 110.38 108.774 108.453 108.328 104.72Z" fill="white"/>
<path d="M93.9856 117.313C93.8235 117.477 101.076 114.811 101.724 104.638C101.765 103.777 101.724 102.956 101.643 102.095C101.522 100.085 101.035 95.3268 103.061 93.3989C102.94 93.481 100.144 94.8756 97.632 98.1571C95.1606 101.562 92.9322 106.812 93.9856 117.313Z" fill="white"/>
<path d="M86.1658 120.061C86.3684 119.979 92.4458 118.01 102.17 121.291C103.02 121.578 103.831 121.906 104.641 122.276C106.464 123.137 111.853 124.614 115.54 121.209C115.621 121.045 111.893 126.213 105.492 128.305C99.3335 130.561 90.5415 129.741 86.1658 120.061Z" fill="white"/>
<path d="M105.046 114.236C105.073 114.236 105.087 114.236 105.087 114.236C105.357 114.346 105.614 114.482 105.857 114.646C107.194 115.221 110.03 116 111.732 114.236C111.772 114.195 111.164 117.641 107.437 118.625C106.302 118.912 105.127 118.83 104.074 118.543C102.453 118.051 99.7388 116.779 99.0906 114.646C99.0906 114.605 101.805 112.883 105.046 114.236Z" fill="white"/>
<path d="M87.3409 116.82C87.3679 116.82 87.3815 116.82 87.3815 116.82C87.3815 116.82 87.3815 116.807 87.3815 116.779C87.4625 116.506 87.5435 116.205 87.6246 115.877C88.1513 114.318 89.1236 111.488 91.0684 110.914C91.0279 110.955 88.5564 109.601 85.9634 111.816C85.1531 112.554 84.4643 113.457 83.9376 114.482C83.1678 116.041 81.6282 118.994 82.2359 121.209C82.2359 121.25 86.0444 120.594 87.3409 116.82Z" fill="white"/>
<path d="M75.7533 133.679C75.7533 133.679 75.7668 133.692 75.7938 133.72C76.1449 134.13 76.5231 134.54 76.9282 134.95C78.873 137.165 82.3574 141.39 81.385 145C81.4255 144.918 85.8012 142.252 84.7073 136.058C84.3832 134.089 83.6134 132.161 82.5194 130.356C80.8178 127.69 77.6575 122.481 73.687 121.455C73.6464 121.414 71.1345 128.059 75.7533 133.679Z" fill="white"/>
<path d="M87.9892 10.0904C87.9892 10.0904 87.9757 10.0904 87.9487 10.0904C87.6516 10.1177 87.341 10.1588 87.0168 10.2134C85.3152 10.3775 81.9523 10.6236 79.1162 9.27002C79.1162 9.31104 81.142 11.8132 85.5177 13.1257C86.9358 13.5359 88.2323 13.782 89.4478 13.8231C91.3115 13.9051 94.5933 14.0692 95.6873 12.7566C95.7278 12.7566 92.3244 9.80326 87.9892 10.0904Z" fill="white"/>
<path d="M73.7275 27.564L82.1143 28.7946L76.0369 34.7422L77.4955 43.192L70 39.2132L62.5451 43.192L63.9631 34.7422L57.8857 28.7946L66.2725 27.564L70 19.8936L73.7275 27.564Z" fill="#BCA045"/>
<path d="M55.8599 42.0027H42.7327" stroke="#BCA045" stroke-width="2" stroke-linecap="round" stroke-linejoin="round"/>
<path d="M84.1401 42.0029H97.2673" stroke="#BCA045" stroke-width="2" stroke-linecap="round" stroke-linejoin="round"/>
<path d="M53.0459 102.744H86.5486" stroke="#BCA045" stroke-width="2" stroke-linecap="round" stroke-linejoin="round"/>
<path d="M57.1835 62.7485V61.5048H59.6527C60.0867 61.5048 60.4225 61.368 60.66 61.0944C60.8975 60.8208 61.0162 60.5057 61.0162 60.1492C61.0162 59.9088 60.963 59.6849 60.8565 59.4776C60.7501 59.2704 60.5945 59.1045 60.3897 58.9802C60.185 58.8558 59.9393 58.7936 59.6527 58.7936H57.1835V57.55H59.4438C59.8123 57.55 60.1072 57.4546 60.3283 57.2639C60.5494 57.0732 60.66 56.7913 60.66 56.4182C60.66 56.0451 60.5494 55.7632 60.3283 55.5725C60.1072 55.3818 59.8123 55.2865 59.4438 55.2865H57.1835V54.0428H59.4807C60.0621 54.0428 60.5453 54.1506 60.9302 54.3662C61.3151 54.5817 61.6018 54.8595 61.7901 55.1994C61.9785 55.5394 62.0727 55.9042 62.0727 56.2939C62.0727 56.7499 61.9457 57.152 61.6919 57.5002C61.4462 57.8484 61.0817 58.1303 60.5985 58.3459L60.7091 57.8982C61.2496 58.122 61.6714 58.4371 61.9744 58.8434C62.2774 59.2496 62.4289 59.7264 62.4289 60.2736C62.4289 60.7213 62.3184 61.1317 62.0972 61.5048C61.8843 61.8779 61.5649 62.1805 61.1391 62.4127C60.7214 62.6365 60.2054 62.7485 59.5912 62.7485H57.1835ZM56.213 62.7485V54.0428H57.6257V62.7485H56.213Z" fill="white"/>
<path d="M63.8548 62.7485V54.0428H65.2675V62.7485H63.8548ZM64.8252 62.7485V61.4426H69.6407V62.7485H64.8252ZM64.8252 58.9304V57.6743H69.223V58.9304H64.8252ZM64.8252 55.3487V54.0428H69.5793V55.3487H64.8252Z" fill="white"/>
<path d="M73.2801 62.8728C72.6004 62.8728 72.023 62.7485 71.548 62.4997C71.073 62.251 70.6472 61.8862 70.2704 61.4053L71.2286 60.4353C71.4661 60.7835 71.7487 61.0571 72.0762 61.2561C72.4038 61.4468 72.8215 61.5421 73.3292 61.5421C73.8042 61.5421 74.181 61.4426 74.4594 61.2436C74.746 61.0447 74.8894 60.771 74.8894 60.4228C74.8894 60.1326 74.8156 59.8963 74.6682 59.7139C74.5208 59.5315 74.3243 59.3823 74.0786 59.2662C73.8411 59.1418 73.5749 59.0341 73.2801 58.9429C72.9935 58.8434 72.7027 58.7356 72.4079 58.6195C72.1213 58.4951 71.8551 58.3418 71.6094 58.1594C71.3719 57.9769 71.1795 57.7407 71.0321 57.4505C70.8847 57.1603 70.811 56.7913 70.811 56.3436C70.811 55.8296 70.9338 55.3943 71.1795 55.0378C71.4334 54.6729 71.7732 54.3952 72.1991 54.2045C72.6249 54.0138 73.0999 53.9185 73.6241 53.9185C74.1891 53.9185 74.6928 54.0304 75.135 54.2542C75.5855 54.4781 75.9499 54.7641 76.2283 55.1124L75.2702 56.0824C75.0245 55.8005 74.7665 55.5933 74.4963 55.4606C74.2342 55.3197 73.9312 55.2492 73.5872 55.2492C73.1614 55.2492 72.8256 55.3362 72.5799 55.5103C72.3424 55.6845 72.2236 55.929 72.2236 56.2441C72.2236 56.5094 72.2974 56.725 72.4448 56.8908C72.5922 57.0483 72.7846 57.1851 73.0221 57.3012C73.2678 57.409 73.534 57.5126 73.8206 57.6121C74.1154 57.7116 74.4062 57.8236 74.6928 57.9479C74.9876 58.0723 75.2538 58.234 75.4913 58.433C75.737 58.6237 75.9335 58.8724 76.0809 59.1792C76.2283 59.4859 76.302 59.8715 76.302 60.3358C76.302 61.1151 76.0277 61.7328 75.479 62.1888C74.9385 62.6448 74.2055 62.8728 73.2801 62.8728Z" fill="white"/>
<path d="M79.5008 62.7485V54.2916H80.9135V62.7485H79.5008ZM76.6999 55.3487V54.0428H83.7143V55.3487H76.6999Z" fill="white"/>
<path d="M53.4524 92.8406L57.198 88.8134C57.5077 88.4803 57.7594 88.1814 57.9529 87.9169C58.1465 87.6523 58.2869 87.4024 58.374 87.1673C58.4611 86.9321 58.5046 86.692 58.5046 86.4471C58.5046 85.9865 58.3546 85.6289 58.0546 85.3741C57.7642 85.1096 57.3916 84.9773 56.9367 84.9773C56.4528 84.9773 56.0269 85.0998 55.6591 85.3447C55.2913 85.5897 54.9623 85.9718 54.6719 86.4912L53.5105 85.5211C53.9073 84.8254 54.3961 84.3012 54.9768 83.9484C55.5575 83.5859 56.2302 83.4046 56.9948 83.4046C57.6239 83.4046 58.1756 83.532 58.6498 83.7868C59.1241 84.0415 59.4918 84.3992 59.7532 84.8597C60.0145 85.3104 60.1451 85.8347 60.1451 86.4324C60.1451 86.8635 60.0919 87.2506 59.9854 87.5935C59.8887 87.9267 59.7193 88.2647 59.4773 88.6077C59.2354 88.9408 58.9014 89.3328 58.4756 89.7835L55.6011 92.7965L53.4524 92.8406ZM53.4524 93.8401V92.8406L54.8897 92.3262H60.3484V93.8401H53.4524Z" fill="white"/>
<path d="M65.6767 93.9871C64.9121 93.9871 64.2104 93.7715 63.5716 93.3404C62.9425 92.8994 62.4392 92.2821 62.0617 91.4884C61.6843 90.6948 61.4955 89.759 61.4955 88.6811C61.4955 87.6033 61.6794 86.6724 62.0472 85.8886C62.4247 85.0949 62.928 84.4825 63.5571 84.0513C64.1862 83.6202 64.883 83.4046 65.6476 83.4046C66.4219 83.4046 67.1236 83.6202 67.7527 84.0513C68.3818 84.4825 68.8803 85.0949 69.2481 85.8886C69.6255 86.6724 69.8143 87.6082 69.8143 88.6958C69.8143 89.7737 69.6255 90.7094 69.2481 91.5031C68.8803 92.2968 68.3818 92.9092 67.7527 93.3404C67.1333 93.7715 66.4413 93.9871 65.6767 93.9871ZM65.6476 92.3997C66.1509 92.3997 66.5865 92.2625 66.9542 91.9882C67.322 91.7138 67.6075 91.3023 67.8108 90.7535C68.0237 90.2048 68.1302 89.514 68.1302 88.6811C68.1302 87.8581 68.0237 87.1722 67.8108 86.6234C67.6075 86.0747 67.3172 85.6681 66.9397 85.4035C66.5719 85.1292 66.1412 84.992 65.6476 84.992C65.154 84.992 64.7185 85.1292 64.341 85.4035C63.9732 85.6681 63.6877 86.0747 63.4845 86.6234C63.2812 87.1624 63.1796 87.8483 63.1796 88.6811C63.1796 89.514 63.2812 90.2048 63.4845 90.7535C63.6877 91.3023 63.9732 91.7138 64.341 91.9882C64.7185 92.2625 65.154 92.3997 65.6476 92.3997Z" fill="white"/>
<path d="M70.82 92.8406L74.5656 88.8134C74.8753 88.4803 75.1269 88.1814 75.3205 87.9169C75.5141 87.6523 75.6544 87.4024 75.7415 87.1673C75.8286 86.9321 75.8722 86.692 75.8722 86.4471C75.8722 85.9865 75.7221 85.6289 75.4221 85.3741C75.1318 85.1096 74.7591 84.9773 74.3042 84.9773C73.8203 84.9773 73.3945 85.0998 73.0267 85.3447C72.6589 85.5897 72.3298 85.9718 72.0395 86.4912L70.878 85.5211C71.2748 84.8254 71.7636 84.3012 72.3443 83.9484C72.925 83.5859 73.5977 83.4046 74.3623 83.4046C74.9914 83.4046 75.5431 83.532 76.0173 83.7868C76.4916 84.0415 76.8594 84.3992 77.1207 84.8597C77.382 85.3104 77.5127 85.8347 77.5127 86.4324C77.5127 86.8635 77.4594 87.2506 77.353 87.5935C77.2562 87.9267 77.0868 88.2647 76.8449 88.6077C76.6029 88.9408 76.269 89.3328 75.8431 89.7835L72.9686 92.7965L70.82 92.8406ZM70.82 93.8401V92.8406L72.2572 92.3262H77.7159V93.8401H70.82Z" fill="white"/>
<path d="M81.8392 93.9871C81.1617 93.9871 80.5471 93.8646 79.9955 93.6196C79.4535 93.3649 78.9937 92.9974 78.6163 92.5173L79.7487 91.3709C79.9519 91.6844 80.2374 91.9343 80.6052 92.1204C80.973 92.3066 81.3747 92.3997 81.8102 92.3997C82.2264 92.3997 82.5845 92.3213 82.8845 92.1645C83.1845 92.0078 83.4168 91.7873 83.5814 91.5031C83.7556 91.219 83.8427 90.8907 83.8427 90.5184C83.8427 90.1264 83.7556 89.7933 83.5814 89.5189C83.4168 89.2446 83.1749 89.0339 82.8555 88.8869C82.5458 88.7301 82.1683 88.6518 81.7231 88.6518C81.5489 88.6518 81.3698 88.6665 81.1859 88.6958C81.002 88.7154 80.8375 88.7497 80.6923 88.7987L81.4327 87.8287C81.636 87.7503 81.8489 87.6866 82.0715 87.6376C82.3038 87.5788 82.5264 87.5494 82.7393 87.5494C83.262 87.5494 83.7314 87.6768 84.1476 87.9316C84.5734 88.1863 84.9073 88.544 85.1493 89.0045C85.4009 89.4552 85.5268 89.9893 85.5268 90.6066C85.5268 91.2729 85.3719 91.8608 85.0622 92.3703C84.7525 92.8798 84.3218 93.2767 83.7701 93.5608C83.2184 93.845 82.5748 93.9871 81.8392 93.9871ZM80.6923 88.7987V87.7993L83.4072 84.5951L85.4106 84.551L82.5796 87.8434L80.6923 88.7987ZM79.1244 85.0655V83.5516H85.4106V84.551L83.9733 85.0655H79.1244Z" fill="white"/>
<path d="M40.4087 76.3157V69.1929H41.5645V76.3157H40.4087ZM41.2027 73.2631V72.1947H44.7808V73.2631H41.2027ZM41.2027 70.2613V69.1929H44.9517V70.2613H41.2027Z" fill="white"/>
<path d="M46.1015 76.3157V69.1929H47.2574V76.3157H46.1015Z" fill="white"/>
<path d="M48.7811 76.3157V69.1929H49.9369V76.3157H48.7811ZM49.5751 76.3157V75.2473H53.2537V76.3157H49.5751Z" fill="white"/>
<path d="M54.3071 76.3157V69.1929H55.1111L58.0359 74.067H57.5133L60.4381 69.1929H61.2421V76.3157H60.0863V71.2484L60.3476 71.3196L58.1766 74.9319H57.3726L55.2016 71.3196L55.4629 71.2484V76.3157H54.3071Z" fill="white"/>
<path d="M63.9727 76.3157L66.8673 69.1929H67.6714L70.5459 76.3157H69.2996L67.0482 70.5463H67.4704L65.1989 76.3157H63.9727ZM65.3999 74.942V73.9245H69.1287V74.942H65.3999Z" fill="white"/>
<path d="M72.5175 76.3157L70.2058 69.1929H71.3416L73.0804 74.6775H72.7788L74.4774 69.1929H75.2815L76.9801 74.6775H76.6786L78.4173 69.1929H79.5531L77.2414 76.3157H76.4373L74.7287 70.8413H75.0302L73.3216 76.3157H72.5175Z" fill="white"/>
<path d="M79.2158 76.3157L82.1104 69.1929H82.9145L85.789 76.3157H84.5427L82.2913 70.5463H82.7134L80.442 76.3157H79.2158ZM80.643 74.942V73.9245H84.3718V74.942H80.643Z" fill="white"/>
<path d="M87.5111 73.2936V72.327H89.29C89.6452 72.327 89.9199 72.2354 90.1142 72.0522C90.3152 71.8623 90.4157 71.6011 90.4157 71.2687C90.4157 70.9702 90.3186 70.7192 90.1243 70.5157C89.9299 70.3122 89.6552 70.2105 89.3001 70.2105H87.5111V69.1929H89.3504C89.7926 69.1929 90.1812 69.2845 90.5162 69.4677C90.8513 69.644 91.1092 69.8882 91.2902 70.2003C91.4778 70.5056 91.5716 70.8549 91.5716 71.2484C91.5716 71.6622 91.4778 72.0217 91.2902 72.327C91.1092 72.6322 90.8513 72.8696 90.5162 73.0392C90.1812 73.2088 89.7926 73.2936 89.3504 73.2936H87.5111ZM86.717 76.3157V69.1929H87.8729V76.3157H86.717ZM90.5766 76.3157L88.1141 73.2224L89.1895 72.8256L92.0339 76.3157H90.5766Z" fill="white"/>
<path d="M93.6848 76.3157V75.2473H95.5342C96.0166 75.2473 96.4388 75.1422 96.8006 74.9319C97.1691 74.7216 97.4539 74.4299 97.6549 74.0568C97.8626 73.6769 97.9665 73.2394 97.9665 72.7442C97.9665 72.2557 97.8626 71.825 97.6549 71.4519C97.4472 71.0788 97.1591 70.7871 96.7905 70.5768C96.4287 70.3665 96.0099 70.2613 95.5342 70.2613H93.6848V69.1929H95.5644C96.0736 69.1929 96.546 69.2845 96.9815 69.4677C97.417 69.644 97.7956 69.895 98.1173 70.2206C98.4456 70.5395 98.7002 70.916 98.8811 71.3501C99.062 71.7775 99.1525 72.2456 99.1525 72.7543C99.1525 73.2563 99.062 73.7244 98.8811 74.1585C98.7002 74.5927 98.4489 74.9726 98.1273 75.2982C97.8057 75.617 97.4271 75.868 96.9916 76.0512C96.556 76.2275 96.087 76.3157 95.5844 76.3157H93.6848ZM92.8908 76.3157V69.1929H94.0467V76.3157H92.8908Z" fill="white"/>
</svg>
