<svg width="289" height="45" viewBox="0 0 289 45" fill="none" xmlns="http://www.w3.org/2000/svg">
<path d="M11.952 16.452L4.176 34.74C4.008 35.196 3.744 35.556 3.384 35.82C3.048 36.06 2.676 36.18 2.268 36.18C1.62 36.18 1.14 36 0.828 35.64C0.516 35.28 0.36 34.836 0.36 34.308C0.36 34.092 0.396 33.864 0.468 33.624L9.432 12.096C9.624 11.616 9.912 11.244 10.296 10.98C10.704 10.716 11.136 10.608 11.592 10.656C12.024 10.656 12.42 10.788 12.78 11.052C13.164 11.292 13.44 11.64 13.608 12.096L22.464 33.192C22.584 33.504 22.644 33.792 22.644 34.056C22.644 34.704 22.428 35.22 21.996 35.604C21.588 35.988 21.132 36.18 20.628 36.18C20.196 36.18 19.8 36.048 19.44 35.784C19.104 35.52 18.84 35.16 18.648 34.704L10.908 16.668L11.952 16.452ZM5.292 30.348L7.272 26.208H16.992L17.676 30.348H5.292ZM35.4482 16.38C37.3682 16.38 38.7842 16.848 39.6962 17.784C40.6082 18.696 41.2082 19.884 41.4962 21.348L40.8842 21.024L41.1722 20.448C41.4602 19.896 41.9042 19.308 42.5042 18.684C43.1042 18.036 43.8242 17.496 44.6642 17.064C45.5282 16.608 46.4882 16.38 47.5442 16.38C49.2722 16.38 50.5802 16.752 51.4682 17.496C52.3802 18.24 53.0042 19.236 53.3402 20.484C53.6762 21.708 53.8442 23.076 53.8442 24.588V33.804C53.8442 34.428 53.6402 34.956 53.2322 35.388C52.8242 35.796 52.3082 36 51.6842 36C51.0602 36 50.5442 35.796 50.1362 35.388C49.7282 34.956 49.5242 34.428 49.5242 33.804V24.588C49.5242 23.796 49.4282 23.088 49.2362 22.464C49.0442 21.816 48.6962 21.3 48.1922 20.916C47.6882 20.532 46.9682 20.34 46.0322 20.34C45.1202 20.34 44.3402 20.532 43.6922 20.916C43.0442 21.3 42.5522 21.816 42.2162 22.464C41.9042 23.088 41.7482 23.796 41.7482 24.588V33.804C41.7482 34.428 41.5442 34.956 41.1362 35.388C40.7282 35.796 40.2122 36 39.5882 36C38.9642 36 38.4482 35.796 38.0402 35.388C37.6322 34.956 37.4282 34.428 37.4282 33.804V24.588C37.4282 23.796 37.3322 23.088 37.1402 22.464C36.9482 21.816 36.6002 21.3 36.0962 20.916C35.5922 20.532 34.8722 20.34 33.9362 20.34C33.0242 20.34 32.2442 20.532 31.5962 20.916C30.9482 21.3 30.4562 21.816 30.1202 22.464C29.8082 23.088 29.6522 23.796 29.6522 24.588V33.804C29.6522 34.428 29.4482 34.956 29.0402 35.388C28.6322 35.796 28.1162 36 27.4922 36C26.8682 36 26.3522 35.796 25.9442 35.388C25.5362 34.956 25.3322 34.428 25.3322 33.804V18.936C25.3322 18.312 25.5362 17.796 25.9442 17.388C26.3522 16.956 26.8682 16.74 27.4922 16.74C28.1162 16.74 28.6322 16.956 29.0402 17.388C29.4482 17.796 29.6522 18.312 29.6522 18.936V20.484L29.1122 20.376C29.3282 19.968 29.6282 19.536 30.0122 19.08C30.3962 18.6 30.8642 18.156 31.4162 17.748C31.9682 17.34 32.5802 17.016 33.2522 16.776C33.9242 16.512 34.6562 16.38 35.4482 16.38ZM67.5917 36.36C65.5517 36.36 63.7757 35.94 62.2637 35.1C60.7757 34.236 59.6237 33.072 58.8077 31.608C58.0157 30.144 57.6197 28.488 57.6197 26.64C57.6197 24.48 58.0517 22.644 58.9157 21.132C59.8037 19.596 60.9557 18.42 62.3717 17.604C63.7877 16.788 65.2877 16.38 66.8717 16.38C68.0957 16.38 69.2477 16.632 70.3277 17.136C71.4317 17.64 72.4037 18.336 73.2437 19.224C74.0837 20.088 74.7437 21.096 75.2237 22.248C75.7277 23.4 75.9797 24.624 75.9797 25.92C75.9557 26.496 75.7277 26.964 75.2957 27.324C74.8637 27.684 74.3597 27.864 73.7837 27.864H60.0317L58.9517 24.264H72.1637L71.3717 24.984V24.012C71.3237 23.316 71.0717 22.692 70.6157 22.14C70.1837 21.588 69.6317 21.156 68.9597 20.844C68.3117 20.508 67.6157 20.34 66.8717 20.34C66.1517 20.34 65.4797 20.436 64.8557 20.628C64.2317 20.82 63.6917 21.144 63.2357 21.6C62.7797 22.056 62.4197 22.668 62.1557 23.436C61.8917 24.204 61.7597 25.176 61.7597 26.352C61.7597 27.648 62.0237 28.752 62.5517 29.664C63.1037 30.552 63.7997 31.236 64.6397 31.716C65.5037 32.172 66.4157 32.4 67.3757 32.4C68.2637 32.4 68.9717 32.328 69.4997 32.184C70.0277 32.04 70.4477 31.872 70.7597 31.68C71.0957 31.464 71.3957 31.284 71.6597 31.14C72.0917 30.924 72.4997 30.816 72.8837 30.816C73.4117 30.816 73.8437 30.996 74.1797 31.356C74.5397 31.716 74.7197 32.136 74.7197 32.616C74.7197 33.264 74.3837 33.852 73.7117 34.38C73.0877 34.908 72.2117 35.376 71.0837 35.784C69.9557 36.168 68.7917 36.36 67.5917 36.36ZM81.9141 36C81.2901 36 80.7741 35.796 80.3661 35.388C79.9581 34.956 79.7541 34.428 79.7541 33.804V18.936C79.7541 18.312 79.9581 17.796 80.3661 17.388C80.7741 16.956 81.2901 16.74 81.9141 16.74C82.5381 16.74 83.0541 16.956 83.4621 17.388C83.8701 17.796 84.0741 18.312 84.0741 18.936V22.32L83.8221 19.908C84.0861 19.332 84.4221 18.828 84.8301 18.396C85.2621 17.94 85.7421 17.568 86.2701 17.28C86.7981 16.968 87.3621 16.74 87.9621 16.596C88.5621 16.452 89.1621 16.38 89.7621 16.38C90.4821 16.38 91.0821 16.584 91.5621 16.992C92.0661 17.4 92.3181 17.88 92.3181 18.432C92.3181 19.224 92.1141 19.8 91.7061 20.16C91.2981 20.496 90.8541 20.664 90.3741 20.664C89.9181 20.664 89.4981 20.58 89.1141 20.412C88.7541 20.244 88.3341 20.16 87.8541 20.16C87.4221 20.16 86.9781 20.268 86.5221 20.484C86.0901 20.676 85.6821 20.988 85.2981 21.42C84.9381 21.852 84.6381 22.392 84.3981 23.04C84.1821 23.664 84.0741 24.408 84.0741 25.272V33.804C84.0741 34.428 83.8701 34.956 83.4621 35.388C83.0541 35.796 82.5381 36 81.9141 36ZM99.4314 33.804C99.4314 34.428 99.2274 34.956 98.8194 35.388C98.4114 35.796 97.8954 36 97.2714 36C96.6474 36 96.1314 35.796 95.7234 35.388C95.3154 34.956 95.1114 34.428 95.1114 33.804V18.936C95.1114 18.312 95.3154 17.796 95.7234 17.388C96.1314 16.956 96.6474 16.74 97.2714 16.74C97.8954 16.74 98.4114 16.956 98.8194 17.388C99.2274 17.796 99.4314 18.312 99.4314 18.936V33.804ZM97.2354 14.4C96.4194 14.4 95.8434 14.268 95.5074 14.004C95.1714 13.74 95.0034 13.272 95.0034 12.6V11.916C95.0034 11.22 95.1834 10.752 95.5434 10.512C95.9274 10.248 96.5034 10.116 97.2714 10.116C98.1114 10.116 98.6994 10.248 99.0354 10.512C99.3714 10.776 99.5394 11.244 99.5394 11.916V12.6C99.5394 13.296 99.3594 13.776 98.9994 14.04C98.6394 14.28 98.0514 14.4 97.2354 14.4ZM112.439 16.38C113.807 16.38 114.995 16.524 116.003 16.812C117.035 17.1 117.827 17.508 118.379 18.036C118.955 18.54 119.243 19.152 119.243 19.872C119.243 20.352 119.099 20.808 118.811 21.24C118.523 21.648 118.103 21.852 117.551 21.852C117.167 21.852 116.843 21.804 116.579 21.708C116.339 21.588 116.123 21.444 115.931 21.276C115.739 21.108 115.511 20.952 115.247 20.808C115.007 20.664 114.635 20.556 114.131 20.484C113.651 20.388 113.291 20.34 113.051 20.34C111.827 20.34 110.783 20.604 109.919 21.132C109.079 21.66 108.431 22.38 107.975 23.292C107.519 24.18 107.291 25.212 107.291 26.388C107.291 27.54 107.519 28.572 107.975 29.484C108.455 30.372 109.103 31.08 109.919 31.608C110.759 32.136 111.719 32.4 112.799 32.4C113.399 32.4 113.915 32.364 114.347 32.292C114.779 32.22 115.139 32.112 115.427 31.968C115.763 31.776 116.063 31.572 116.327 31.356C116.591 31.14 116.987 31.032 117.515 31.032C118.139 31.032 118.619 31.236 118.955 31.644C119.291 32.028 119.459 32.508 119.459 33.084C119.459 33.684 119.123 34.236 118.451 34.74C117.779 35.22 116.891 35.616 115.787 35.928C114.707 36.216 113.531 36.36 112.259 36.36C110.363 36.36 108.719 35.928 107.327 35.064C105.935 34.176 104.855 32.976 104.087 31.464C103.343 29.952 102.971 28.26 102.971 26.388C102.971 24.42 103.367 22.692 104.159 21.204C104.975 19.692 106.091 18.516 107.507 17.676C108.947 16.812 110.591 16.38 112.439 16.38ZM138.342 16.38C138.966 16.38 139.482 16.584 139.89 16.992C140.298 17.4 140.502 17.928 140.502 18.576V33.804C140.502 34.428 140.298 34.956 139.89 35.388C139.482 35.796 138.966 36 138.342 36C137.718 36 137.202 35.796 136.794 35.388C136.386 34.956 136.182 34.428 136.182 33.804V32.04L136.974 32.364C136.974 32.676 136.806 33.06 136.47 33.516C136.134 33.948 135.678 34.38 135.102 34.812C134.526 35.244 133.842 35.616 133.05 35.928C132.282 36.216 131.442 36.36 130.53 36.36C128.874 36.36 127.374 35.94 126.03 35.1C124.686 34.236 123.618 33.06 122.826 31.572C122.058 30.06 121.674 28.332 121.674 26.388C121.674 24.42 122.058 22.692 122.826 21.204C123.618 19.692 124.674 18.516 125.994 17.676C127.314 16.812 128.778 16.38 130.386 16.38C131.418 16.38 132.366 16.536 133.23 16.848C134.094 17.16 134.838 17.556 135.462 18.036C136.11 18.516 136.602 19.008 136.938 19.512C137.298 19.992 137.478 20.4 137.478 20.736L136.182 21.204V18.576C136.182 17.952 136.386 17.436 136.794 17.028C137.202 16.596 137.718 16.38 138.342 16.38ZM131.07 32.4C132.126 32.4 133.05 32.136 133.842 31.608C134.634 31.08 135.246 30.36 135.678 29.448C136.134 28.536 136.362 27.516 136.362 26.388C136.362 25.236 136.134 24.204 135.678 23.292C135.246 22.38 134.634 21.66 133.842 21.132C133.05 20.604 132.126 20.34 131.07 20.34C130.038 20.34 129.126 20.604 128.334 21.132C127.542 21.66 126.918 22.38 126.462 23.292C126.03 24.204 125.814 25.236 125.814 26.388C125.814 27.516 126.03 28.536 126.462 29.448C126.918 30.36 127.542 31.08 128.334 31.608C129.126 32.136 130.038 32.4 131.07 32.4ZM155.476 16.38C157.252 16.38 158.596 16.752 159.508 17.496C160.444 18.24 161.08 19.236 161.416 20.484C161.776 21.708 161.956 23.076 161.956 24.588V33.804C161.956 34.428 161.752 34.956 161.344 35.388C160.936 35.796 160.42 36 159.796 36C159.172 36 158.656 35.796 158.248 35.388C157.84 34.956 157.636 34.428 157.636 33.804V24.588C157.636 23.796 157.528 23.088 157.312 22.464C157.12 21.816 156.76 21.3 156.232 20.916C155.704 20.532 154.948 20.34 153.964 20.34C153.004 20.34 152.188 20.532 151.516 20.916C150.868 21.3 150.364 21.816 150.004 22.464C149.668 23.088 149.5 23.796 149.5 24.588V33.804C149.5 34.428 149.296 34.956 148.888 35.388C148.48 35.796 147.964 36 147.34 36C146.716 36 146.2 35.796 145.792 35.388C145.384 34.956 145.18 34.428 145.18 33.804V18.936C145.18 18.312 145.384 17.796 145.792 17.388C146.2 16.956 146.716 16.74 147.34 16.74C147.964 16.74 148.48 16.956 148.888 17.388C149.296 17.796 149.5 18.312 149.5 18.936V20.484L148.96 20.376C149.176 19.968 149.488 19.536 149.896 19.08C150.304 18.6 150.784 18.156 151.336 17.748C151.888 17.34 152.512 17.016 153.208 16.776C153.904 16.512 154.66 16.38 155.476 16.38Z" fill="white"/>
<path d="M184.317 36.36C182.445 36.384 180.837 36.072 179.493 35.424C178.149 34.776 176.853 33.828 175.605 32.58C175.557 32.532 175.509 32.472 175.461 32.4C175.413 32.304 175.389 32.184 175.389 32.04C175.389 31.848 175.473 31.668 175.641 31.5C175.809 31.308 175.989 31.212 176.181 31.212C176.397 31.212 176.601 31.32 176.793 31.536C177.753 32.64 178.869 33.48 180.141 34.056C181.437 34.632 182.781 34.92 184.173 34.92C185.397 34.92 186.489 34.728 187.449 34.344C188.409 33.936 189.165 33.372 189.717 32.652C190.269 31.908 190.545 31.044 190.545 30.06C190.521 28.836 190.185 27.852 189.537 27.108C188.889 26.364 188.049 25.752 187.017 25.272C186.009 24.792 184.941 24.348 183.813 23.94C182.925 23.604 182.049 23.256 181.185 22.896C180.321 22.536 179.541 22.104 178.845 21.6C178.149 21.072 177.597 20.424 177.189 19.656C176.781 18.864 176.577 17.892 176.577 16.74C176.577 15.564 176.889 14.508 177.513 13.572C178.161 12.612 179.073 11.856 180.249 11.304C181.449 10.728 182.865 10.44 184.497 10.44C185.865 10.44 187.197 10.692 188.493 11.196C189.789 11.676 190.809 12.408 191.553 13.392C191.793 13.728 191.913 13.98 191.913 14.148C191.913 14.316 191.817 14.484 191.625 14.652C191.457 14.82 191.265 14.904 191.049 14.904C190.857 14.904 190.701 14.832 190.581 14.688C190.149 14.112 189.621 13.62 188.997 13.212C188.397 12.78 187.713 12.456 186.945 12.24C186.177 12 185.361 11.88 184.497 11.88C183.321 11.88 182.253 12.072 181.293 12.456C180.333 12.84 179.565 13.392 178.989 14.112C178.413 14.808 178.125 15.672 178.125 16.704C178.125 17.808 178.437 18.72 179.061 19.44C179.709 20.136 180.525 20.724 181.509 21.204C182.493 21.66 183.501 22.08 184.533 22.464C185.445 22.776 186.345 23.124 187.233 23.508C188.145 23.868 188.961 24.324 189.681 24.876C190.425 25.428 191.013 26.124 191.445 26.964C191.877 27.804 192.093 28.86 192.093 30.132C192.093 31.236 191.769 32.256 191.121 33.192C190.497 34.128 189.609 34.884 188.457 35.46C187.305 36.036 185.925 36.336 184.317 36.36ZM195.254 17.892H203.606C203.798 17.892 203.954 17.964 204.074 18.108C204.218 18.252 204.29 18.408 204.29 18.576C204.29 18.768 204.218 18.936 204.074 19.08C203.954 19.2 203.798 19.26 203.606 19.26H195.254C195.086 19.26 194.93 19.188 194.786 19.044C194.642 18.9 194.57 18.744 194.57 18.576C194.57 18.384 194.642 18.228 194.786 18.108C194.93 17.964 195.086 17.892 195.254 17.892ZM198.926 12.6C199.142 12.6 199.31 12.672 199.43 12.816C199.574 12.96 199.646 13.128 199.646 13.32V32.076C199.646 32.868 199.742 33.456 199.934 33.84C200.15 34.2 200.414 34.44 200.726 34.56C201.038 34.656 201.338 34.704 201.626 34.704C201.794 34.704 201.938 34.68 202.058 34.632C202.178 34.584 202.322 34.56 202.49 34.56C202.658 34.56 202.802 34.632 202.922 34.776C203.042 34.896 203.102 35.04 203.102 35.208C203.102 35.424 202.958 35.616 202.67 35.784C202.406 35.928 202.07 36 201.662 36C201.518 36 201.254 36 200.87 36C200.51 35.976 200.114 35.868 199.682 35.676C199.274 35.46 198.926 35.088 198.638 34.56C198.35 34.008 198.206 33.204 198.206 32.148V13.32C198.206 13.128 198.278 12.96 198.422 12.816C198.566 12.672 198.734 12.6 198.926 12.6ZM221.873 18.036C222.089 18.036 222.257 18.108 222.377 18.252C222.521 18.396 222.593 18.564 222.593 18.756V29.232C222.593 31.56 221.933 33.312 220.613 34.488C219.317 35.64 217.589 36.216 215.429 36.216C213.293 36.216 211.565 35.64 210.245 34.488C208.949 33.312 208.301 31.56 208.301 29.232V18.756C208.301 18.564 208.373 18.396 208.517 18.252C208.661 18.108 208.829 18.036 209.021 18.036C209.237 18.036 209.405 18.108 209.525 18.252C209.669 18.396 209.741 18.564 209.741 18.756V29.232C209.741 31.056 210.245 32.448 211.253 33.408C212.285 34.368 213.677 34.848 215.429 34.848C217.205 34.848 218.597 34.368 219.605 33.408C220.637 32.448 221.153 31.056 221.153 29.232V18.756C221.153 18.564 221.213 18.396 221.333 18.252C221.477 18.108 221.657 18.036 221.873 18.036ZM243.454 9.36C243.67 9.36 243.838 9.432 243.958 9.576C244.102 9.72 244.174 9.888 244.174 10.08V35.28C244.174 35.472 244.102 35.64 243.958 35.784C243.814 35.928 243.646 36 243.454 36C243.238 36 243.058 35.928 242.914 35.784C242.794 35.64 242.734 35.472 242.734 35.28V30.168L243.31 29.376C243.31 30.192 243.118 31.02 242.734 31.86C242.374 32.676 241.846 33.432 241.15 34.128C240.478 34.8 239.686 35.34 238.774 35.748C237.862 36.156 236.878 36.36 235.822 36.36C234.238 36.36 232.81 35.952 231.538 35.136C230.29 34.296 229.294 33.168 228.55 31.752C227.83 30.312 227.47 28.692 227.47 26.892C227.47 25.092 227.83 23.484 228.55 22.068C229.294 20.628 230.29 19.5 231.538 18.684C232.81 17.868 234.238 17.46 235.822 17.46C236.806 17.46 237.742 17.652 238.63 18.036C239.542 18.396 240.346 18.912 241.042 19.584C241.738 20.256 242.29 21.048 242.698 21.96C243.106 22.848 243.31 23.82 243.31 24.876L242.734 23.976V10.08C242.734 9.888 242.794 9.72 242.914 9.576C243.058 9.432 243.238 9.36 243.454 9.36ZM235.894 34.992C237.262 34.992 238.462 34.644 239.494 33.948C240.55 33.252 241.378 32.292 241.978 31.068C242.578 29.844 242.878 28.452 242.878 26.892C242.878 25.332 242.578 23.952 241.978 22.752C241.378 21.528 240.55 20.568 239.494 19.872C238.438 19.176 237.238 18.828 235.894 18.828C234.574 18.828 233.386 19.176 232.33 19.872C231.274 20.568 230.434 21.528 229.81 22.752C229.21 23.952 228.91 25.332 228.91 26.892C228.91 28.428 229.21 29.808 229.81 31.032C230.434 32.256 231.274 33.228 232.33 33.948C233.386 34.644 234.574 34.992 235.894 34.992ZM251.576 35.28C251.576 35.472 251.504 35.64 251.36 35.784C251.216 35.928 251.048 36 250.856 36C250.64 36 250.46 35.928 250.316 35.784C250.196 35.64 250.136 35.472 250.136 35.28V18.18C250.136 17.988 250.208 17.82 250.352 17.676C250.496 17.532 250.664 17.46 250.856 17.46C251.072 17.46 251.24 17.532 251.36 17.676C251.504 17.82 251.576 17.988 251.576 18.18V35.28ZM250.856 15.012C250.472 15.012 250.16 14.904 249.92 14.688C249.704 14.472 249.596 14.196 249.596 13.86V13.572C249.596 13.236 249.716 12.96 249.956 12.744C250.196 12.528 250.508 12.42 250.892 12.42C251.228 12.42 251.504 12.528 251.72 12.744C251.96 12.96 252.08 13.236 252.08 13.572V13.86C252.08 14.196 251.96 14.472 251.72 14.688C251.504 14.904 251.216 15.012 250.856 15.012ZM274.186 26.928C274.186 28.704 273.802 30.312 273.034 31.752C272.266 33.168 271.21 34.296 269.866 35.136C268.546 35.952 267.034 36.36 265.33 36.36C263.65 36.36 262.138 35.952 260.794 35.136C259.45 34.296 258.382 33.168 257.59 31.752C256.822 30.312 256.438 28.704 256.438 26.928C256.438 25.128 256.822 23.52 257.59 22.104C258.382 20.664 259.45 19.536 260.794 18.72C262.138 17.88 263.65 17.46 265.33 17.46C267.034 17.46 268.546 17.88 269.866 18.72C271.21 19.536 272.266 20.664 273.034 22.104C273.802 23.52 274.186 25.128 274.186 26.928ZM272.746 26.928C272.746 25.368 272.422 23.988 271.774 22.788C271.15 21.564 270.274 20.604 269.146 19.908C268.042 19.188 266.77 18.828 265.33 18.828C263.914 18.828 262.642 19.188 261.514 19.908C260.386 20.604 259.498 21.564 258.85 22.788C258.202 23.988 257.878 25.368 257.878 26.928C257.878 28.464 258.202 29.844 258.85 31.068C259.498 32.268 260.386 33.228 261.514 33.948C262.642 34.644 263.914 34.992 265.33 34.992C266.77 34.992 268.042 34.644 269.146 33.948C270.274 33.228 271.15 32.268 271.774 31.068C272.422 29.844 272.746 28.464 272.746 26.928Z" fill="#BCA045"/>
<circle cx="286" cy="33" r="3" fill="#BCA045"/>
</svg>
