<svg width="22" height="22" viewBox="0 0 22 22" fill="none" xmlns="http://www.w3.org/2000/svg">
<path d="M11.0021 1.98125C13.9418 1.98125 14.2899 1.99414 15.446 2.04571C16.5204 2.09299 17.1006 2.27349 17.4874 2.42391C17.9988 2.62161 18.3684 2.86228 18.7509 3.24477C19.1377 3.63157 19.3741 3.99687 19.5718 4.5083C19.7222 4.8951 19.9027 5.47959 19.95 6.54972C20.0016 7.7101 20.0145 8.05822 20.0145 10.9936C20.0145 13.9332 20.0016 14.2813 19.95 15.4374C19.9027 16.5118 19.7222 17.092 19.5718 17.4788C19.3741 17.9902 19.1334 18.3598 18.7509 18.7423C18.3641 19.1291 17.9988 19.3655 17.4874 19.5632C17.1006 19.7136 16.5161 19.8941 15.446 19.9414C14.2856 19.993 13.9375 20.0059 11.0021 20.0059C8.06251 20.0059 7.7144 19.993 6.55831 19.9414C5.48388 19.8941 4.90369 19.7136 4.5169 19.5632C4.00547 19.3655 3.63587 19.1248 3.25337 18.7423C2.86658 18.3555 2.6302 17.9902 2.43251 17.4788C2.28209 17.092 2.10158 16.5075 2.05431 15.4374C2.00274 14.277 1.98984 13.9289 1.98984 10.9936C1.98984 8.05392 2.00274 7.7058 2.05431 6.54972C2.10158 5.47529 2.28209 4.8951 2.43251 4.5083C2.6302 3.99687 2.87087 3.62727 3.25337 3.24477C3.64016 2.85798 4.00547 2.62161 4.5169 2.42391C4.90369 2.27349 5.48818 2.09299 6.55831 2.04571C7.7144 1.99414 8.06251 1.98125 11.0021 1.98125ZM11.0021 0C8.01524 0 7.64134 0.0128931 6.46806 0.0644657C5.29908 0.116038 4.49541 0.305138 3.79918 0.575894C3.07287 0.859543 2.45829 1.23344 1.84802 1.84802C1.23344 2.45829 0.859543 3.07287 0.575894 3.79488C0.305138 4.49541 0.116038 5.29478 0.0644657 6.46376C0.0128931 7.64134 0 8.01524 0 11.0021C0 13.9891 0.0128931 14.363 0.0644657 15.5362C0.116038 16.7052 0.305138 17.5089 0.575894 18.2051C0.859543 18.9314 1.23344 19.546 1.84802 20.1563C2.45829 20.7666 3.07287 21.1448 3.79488 21.4241C4.49541 21.6949 5.29478 21.884 6.46376 21.9355C7.63704 21.9871 8.01094 22 10.9979 22C13.9848 22 14.3587 21.9871 15.5319 21.9355C16.7009 21.884 17.5046 21.6949 18.2008 21.4241C18.9228 21.1448 19.5374 20.7666 20.1477 20.1563C20.758 19.546 21.1362 18.9314 21.4155 18.2094C21.6863 17.5089 21.8754 16.7095 21.9269 15.5405C21.9785 14.3673 21.9914 13.9934 21.9914 11.0064C21.9914 8.01954 21.9785 7.64563 21.9269 6.47236C21.8754 5.30338 21.6863 4.49971 21.4155 3.80348C21.1448 3.07287 20.7709 2.45829 20.1563 1.84802C19.546 1.23774 18.9314 0.859543 18.2094 0.580191C17.5089 0.309435 16.7095 0.120336 15.5405 0.0687634C14.363 0.0128931 13.9891 0 11.0021 0Z" fill="white"/>
<path d="M11.0021 5.35065C7.88201 5.35065 5.35065 7.88201 5.35065 11.0021C5.35065 14.1223 7.88201 16.6536 11.0021 16.6536C14.1223 16.6536 16.6536 14.1223 16.6536 11.0021C16.6536 7.88201 14.1223 5.35065 11.0021 5.35065ZM11.0021 14.6681C8.97793 14.6681 7.3362 13.0264 7.3362 11.0021C7.3362 8.97793 8.97793 7.3362 11.0021 7.3362C13.0264 7.3362 14.6681 8.97793 14.6681 11.0021C14.6681 13.0264 13.0264 14.6681 11.0021 14.6681Z" fill="white"/>
<path d="M18.1965 5.12713C18.1965 5.85774 17.6034 6.44653 16.8771 6.44653C16.1465 6.44653 15.5577 5.85345 15.5577 5.12713C15.5577 4.39652 16.1508 3.80773 16.8771 3.80773C17.6034 3.80773 18.1965 4.40082 18.1965 5.12713Z" fill="white"/>
</svg>
