<svg width="22" height="20" viewBox="0 0 22 20" fill="none" xmlns="http://www.w3.org/2000/svg">
<path d="M6.92098 19.1668C15.2208 19.1668 19.7618 12.1127 19.7618 5.99728C19.7618 5.79897 19.7575 5.59626 19.7489 5.39795C20.6322 4.74277 21.3945 3.93123 22 3.00148C21.1773 3.37688 20.3038 3.62205 19.4094 3.72862C20.3512 3.14965 21.0563 2.24013 21.3941 1.16865C20.5082 1.70716 19.5393 2.08702 18.529 2.29197C17.8483 1.55016 16.9482 1.05899 15.968 0.894401C14.9879 0.729816 13.9821 0.900982 13.1063 1.38143C12.2304 1.86189 11.5333 2.62487 11.1227 3.55241C10.7121 4.47996 10.6108 5.5204 10.8346 6.51289C9.04062 6.42056 7.28561 5.94261 5.68332 5.11002C4.08102 4.27743 2.66722 3.10878 1.53355 1.67985C0.957366 2.6987 0.781052 3.90434 1.04044 5.05172C1.29984 6.19911 1.97547 7.20215 2.93004 7.85699C2.21341 7.83365 1.51248 7.63577 0.885156 7.27969V7.33698C0.884514 8.40618 1.24492 9.44262 1.90512 10.2701C2.56531 11.0976 3.48455 11.6651 4.50656 11.8761C3.84272 12.0624 3.14598 12.0895 2.47027 11.9554C2.75867 12.8749 3.31978 13.6792 4.07529 14.2559C4.8308 14.8326 5.74303 15.153 6.68465 15.1724C5.08606 16.4603 3.11133 17.1588 1.07852 17.1555C0.718013 17.155 0.357866 17.1323 0 17.0877C2.06512 18.4465 4.4674 19.1681 6.92098 19.1668Z" fill="white"/>
</svg>
