<svg width="12" height="12" viewBox="0 0 12 12" fill="none" xmlns="http://www.w3.org/2000/svg">
<path d="M6.00117 1.08068C7.60461 1.08068 7.79449 1.08771 8.42508 1.11584C9.01114 1.14163 9.3276 1.24009 9.53858 1.32213C9.81754 1.42997 10.0191 1.56124 10.2278 1.76988C10.4388 1.98086 10.5677 2.18011 10.6755 2.45907C10.7576 2.67005 10.856 2.98886 10.8818 3.57257C10.9099 4.20551 10.917 4.39539 10.917 5.99648C10.917 7.59992 10.9099 7.7898 10.8818 8.4204C10.856 9.00645 10.7576 9.32292 10.6755 9.53389C10.5677 9.81285 10.4364 10.0145 10.2278 10.2231C10.0168 10.4341 9.81754 10.563 9.53858 10.6708C9.3276 10.7529 9.00879 10.8513 8.42508 10.8771C7.79215 10.9053 7.60227 10.9123 6.00117 10.9123C4.39773 10.9123 4.20785 10.9053 3.57726 10.8771C2.99121 10.8513 2.67474 10.7529 2.46376 10.6708C2.1848 10.563 1.9832 10.4317 1.77457 10.2231C1.56359 10.0121 1.43466 9.81285 1.32682 9.53389C1.24477 9.32292 1.14632 9.0041 1.12053 8.4204C1.0924 7.78746 1.08537 7.59758 1.08537 5.99648C1.08537 4.39305 1.0924 4.20316 1.12053 3.57257C1.14632 2.98652 1.24477 2.67005 1.32682 2.45907C1.43466 2.18011 1.56593 1.97851 1.77457 1.76988C1.98554 1.5589 2.1848 1.42997 2.46376 1.32213C2.67474 1.24009 2.99355 1.14163 3.57726 1.11584C4.20785 1.08771 4.39773 1.08068 6.00117 1.08068ZM6.00117 0C4.37195 0 4.168 0.00703262 3.52803 0.0351631C2.89041 0.0632936 2.45204 0.166439 2.07228 0.314124C1.67611 0.468842 1.34089 0.672788 1.00801 1.00801C0.672788 1.34089 0.468842 1.67611 0.314124 2.06994C0.166439 2.45204 0.0632936 2.88806 0.0351631 3.52569C0.00703262 4.168 0 4.37195 0 6.00117C0 7.6304 0.00703262 7.83434 0.0351631 8.47431C0.0632936 9.11194 0.166439 9.5503 0.314124 9.93007C0.468842 10.3262 0.672788 10.6615 1.00801 10.9943C1.34089 11.3272 1.67611 11.5335 2.06994 11.6859C2.45204 11.8336 2.88806 11.9367 3.52569 11.9648C4.16566 11.993 4.3696 12 5.99883 12C7.62805 12 7.832 11.993 8.47197 11.9648C9.10959 11.9367 9.54796 11.8336 9.92772 11.6859C10.3215 11.5335 10.6568 11.3272 10.9896 10.9943C11.3225 10.6615 11.5288 10.3262 11.6812 9.93241C11.8289 9.5503 11.932 9.11428 11.9601 8.47666C11.9883 7.83669 11.9953 7.63274 11.9953 6.00352C11.9953 4.37429 11.9883 4.17035 11.9601 3.53038C11.932 2.89275 11.8289 2.45439 11.6812 2.07462C11.5335 1.67611 11.3296 1.34089 10.9943 1.00801C10.6615 0.675132 10.3262 0.468842 9.93241 0.316468C9.5503 0.168783 9.11428 0.0656378 8.47666 0.0375073C7.83434 0.00703263 7.6304 0 6.00117 0Z" fill="white"/>
<path d="M6.00117 2.91854C4.29928 2.91854 2.91854 4.29928 2.91854 6.00117C2.91854 7.70307 4.29928 9.08381 6.00117 9.08381C7.70307 9.08381 9.08381 7.70307 9.08381 6.00117C9.08381 4.29928 7.70307 2.91854 6.00117 2.91854ZM6.00117 8.00078C4.89705 8.00078 4.00156 7.10529 4.00156 6.00117C4.00156 4.89705 4.89705 4.00156 6.00117 4.00156C7.10529 4.00156 8.00078 4.89705 8.00078 6.00117C8.00078 7.10529 7.10529 8.00078 6.00117 8.00078Z" fill="white"/>
<path d="M9.92537 2.79662C9.92537 3.19513 9.60187 3.51629 9.2057 3.51629C8.80719 3.51629 8.48603 3.19279 8.48603 2.79662C8.48603 2.3981 8.80953 2.07694 9.2057 2.07694C9.60187 2.07694 9.92537 2.40044 9.92537 2.79662Z" fill="white"/>
</svg>
