<svg width="24" height="24" viewBox="0 0 24 24" fill="none" xmlns="http://www.w3.org/2000/svg">
<path d="M19.8976 20.762C19.6854 20.762 19.4731 20.6836 19.3056 20.5155C18.9816 20.1906 18.9816 19.6528 19.3056 19.3278C23.3381 15.283 23.3381 8.70599 19.3056 4.67237C18.9816 4.34744 18.9816 3.80962 19.3056 3.48469C19.6295 3.15976 20.1657 3.15976 20.4896 3.48469C25.1701 8.17939 25.1701 15.8208 20.4896 20.5155C20.3221 20.6836 20.1098 20.762 19.8976 20.762Z" fill="white"/>
<path d="M4.10241 20.762C3.89017 20.762 3.67792 20.6836 3.51037 20.5155C-1.17012 15.8208 -1.17012 8.17939 3.51037 3.48469C3.83431 3.15976 4.3705 3.15976 4.69445 3.48469C5.0184 3.80962 5.0184 4.34744 4.69445 4.67237C0.661856 8.7172 0.661856 15.2942 4.69445 19.3278C5.0184 19.6528 5.0184 20.1906 4.69445 20.5155C4.52689 20.6836 4.31465 20.762 4.10241 20.762Z" fill="white"/>
<path d="M12 24C10.6036 23.9888 9.27435 23.7647 8.03441 23.3277C7.59876 23.1708 7.36415 22.6891 7.52054 22.2521C7.67693 21.8151 8.14612 21.5798 8.59294 21.7367C9.66532 22.1064 10.8047 22.3081 12.0112 22.3081C13.2064 22.3081 14.357 22.1064 15.4182 21.7367C15.8538 21.591 16.3342 21.8151 16.4905 22.2521C16.6469 22.6891 16.4124 23.1708 15.9767 23.3277C14.7256 23.7647 13.3963 24 12 24Z" fill="white"/>
<path d="M15.6865 2.29698C15.5971 2.29698 15.4966 2.28573 15.4072 2.25212C14.3349 1.88237 13.1843 1.68068 11.989 1.68068C10.7938 1.68068 9.65438 1.88237 8.58201 2.25212C8.14635 2.39778 7.66602 2.17373 7.50964 1.73675C7.35325 1.29978 7.58782 0.81796 8.02347 0.661097C9.26341 0.22412 10.6039 0 11.989 0C13.3742 0 14.7147 0.22412 15.9546 0.661097C16.3903 0.81796 16.6248 1.29978 16.4685 1.73675C16.3568 2.08409 16.0328 2.29698 15.6865 2.29698Z" fill="white"/>
<path d="M8.35887 10.129C8.35887 7.79847 10.001 6.84607 12.0117 8.01134L15.2512 9.89369C17.2619 11.059 17.2619 12.9638 15.2512 14.129L12.0117 16.0114C10.001 17.1767 8.35887 16.2243 8.35887 13.8937V10.129Z" fill="white"/>
</svg>
