<svg width="19" height="21" viewBox="0 0 19 21" fill="none" xmlns="http://www.w3.org/2000/svg">
<path d="M15.4375 13.4688C14.2642 13.4688 13.2303 14.0383 12.5809 14.9045L6.96627 12.0673C7.05949 11.7538 7.125 11.4288 7.125 11.0859C7.125 10.6209 7.02838 10.1787 6.86145 9.77203L12.7374 6.28266C13.3913 7.04 14.3525 7.53125 15.4375 7.53125C17.402 7.53125 19 5.95426 19 4.01562C19 2.07699 17.402 0.5 15.4375 0.5C13.473 0.5 11.875 2.07699 11.875 4.01562C11.875 4.46238 11.9682 4.88617 12.1229 5.27961L6.22943 8.77922C5.57606 8.04437 4.62876 7.57031 3.5625 7.57031C1.59802 7.57031 0 9.1473 0 11.0859C0 13.0246 1.59802 14.6016 3.5625 14.6016C4.75515 14.6016 5.80652 14.0153 6.45347 13.1248L12.0496 15.9527C11.9465 16.2811 11.875 16.623 11.875 16.9844C11.875 18.923 13.473 20.5 15.4375 20.5C17.402 20.5 19 18.923 19 16.9844C19 15.0457 17.402 13.4688 15.4375 13.4688Z" fill="white"/>
</svg>
