<svg width="12" height="10" viewBox="0 0 12 10" fill="none" xmlns="http://www.w3.org/2000/svg">
<path d="M3.77508 10C8.30227 10 10.7791 6.1523 10.7791 2.81661C10.7791 2.70844 10.7768 2.59787 10.7721 2.4897C11.2539 2.13233 11.6697 1.68967 12 1.18254C11.5513 1.3873 11.0748 1.52103 10.587 1.57916C11.1006 1.26336 11.4853 0.767256 11.6695 0.182813C11.1863 0.476541 10.6578 0.683741 10.1067 0.795531C9.73542 0.390905 9.24449 0.122995 8.70984 0.033221C8.17519 -0.0565527 7.6266 0.0368103 7.14887 0.298876C6.67115 0.560941 6.2909 0.977112 6.06692 1.48304C5.84295 1.98898 5.78771 2.55649 5.90977 3.09785C4.93125 3.04749 3.97397 2.78679 3.09999 2.33265C2.22601 1.87851 1.45485 1.24107 0.836484 0.461649C0.5222 1.01739 0.426028 1.675 0.567515 2.30085C0.709002 2.9267 1.07753 3.47381 1.5982 3.831C1.20731 3.81827 0.824988 3.71033 0.482813 3.5161V3.54735C0.482462 4.13056 0.679049 4.69589 1.03915 5.14725C1.39926 5.59861 1.90066 5.90814 2.45812 6.02322C2.09603 6.12483 1.71599 6.13964 1.34742 6.06649C1.50473 6.56805 1.81079 7.00673 2.22289 7.3213C2.63498 7.63588 3.13256 7.81065 3.64617 7.82123C2.77421 8.52371 1.69709 8.90473 0.588281 8.90292C0.391644 8.90262 0.1952 8.89025 0 8.86591C1.12643 9.60707 2.43677 10.0007 3.77508 10Z" fill="white"/>
</svg>
